<svg version="1" xmlns="http://www.w3.org/2000/svg" width="506.667" height="506.667" viewBox="0 0 380.000000 380.000000"><path d="M0 190.5V327h42v-92h31.9l32.7 44.2c18 24.4 33.4 45.1 34.3 46.1 1.5 1.6 3.8 1.7 25.2 1.5l23.5-.3-36.3-49-36.4-48.9 6.2-2.8c21.6-9.8 37.3-29.6 44-55.3 2.1-7.8 2.4-11.4 2.4-26-.1-20.6-2-29.7-9.5-45-9.6-19.7-23.4-32-44-39.6-14.4-5.2-22.6-5.9-71.7-5.9H0v136.5zm95.9-96c17.2 4.1 28.5 15.5 32.6 32.7 2 8.3 1.9 26.7 0 34.3-4.5 17.5-16.1 28.8-33.6 33-4.7 1.1-12.5 1.5-29.6 1.5H42V93h23.8c17.6 0 25.3.4 30.1 1.5zM217 190.5V327h163v-39H259v-84h100v-39H259l.2-36.3.3-36.2 60.3-.3L380 92V54H217v136.5z"/></svg>