<?xml version="1.0" encoding="UTF-8"?>
<svg width="263px" height="51px" viewBox="0 0 263 51" version="1.1" xmlns="http://www.w3.org/2000/svg" xmlns:xlink="http://www.w3.org/1999/xlink" preserveAspectRatio="none">
    <!-- Generator: Sketch 59.1 (86144) - https://sketch.com -->
    <title>logo</title>
    <desc>Created with Sketch.</desc>
    <g id="Biz-Cards" stroke="none" stroke-width="1" fill="none" fill-rule="evenodd">
        <g id="logo">
            <g id="Group-3">
                <path d="M9.5878,15.9356 C11.5058,15.9356 12.9478,15.3756 13.8678,14.3356 C14.9858,13.1356 15.1878,11.4556 15.1878,10.2956 C15.1878,9.0936 14.9858,7.4136 13.8678,6.2136 C12.9478,5.1736 11.5058,4.6536 9.5878,4.6536 L5.4258,4.6536 L5.4258,15.9356 L9.5878,15.9356 Z M21.5478,30.1396 L16.3058,30.1396 L8.8258,20.0976 L5.4258,20.0976 L5.4258,30.1396 L0.7858,30.1396 L0.7858,0.4516 L4.7058,0.4516 L9.5878,0.4516 C13.5078,0.4516 15.7878,2.0536 16.9878,3.4136 C18.5478,5.1336 19.3878,7.5336 19.3878,10.2956 C19.3878,13.0156 18.5478,15.4156 16.9878,17.1356 C16.2678,17.9356 15.1458,18.8556 13.5478,19.4156 L21.5478,30.1396 Z" id="Fill-14" fill="#BCA070"></path>
                <polygon id="Fill-16" fill="#BCA070" points="41.8262 12.5352 52.6682 12.5352 52.6682 16.7352 41.8262 16.7352 41.8262 25.9372 54.9902 25.9372 54.9902 30.1392 41.7862 30.1392 37.1862 30.1392 37.1862 0.4512 41.7862 0.4512 54.9902 0.4512 54.9902 4.6132 41.8262 4.6132"></polygon>
                <path d="M89.709,15.2958 C89.709,12.2538 88.869,9.7338 87.307,8.0138 C85.547,6.0538 82.947,5.0938 79.505,5.0938 L77.105,5.0938 L77.105,25.4978 L79.505,25.4978 C82.947,25.4978 85.547,24.4978 87.307,22.5778 C88.869,20.8558 89.709,18.2958 89.709,15.2958 M94.349,15.2958 C94.349,19.4958 93.107,23.0978 90.749,25.6978 C89.467,27.1378 87.869,28.2578 85.987,28.9778 C84.067,29.7378 81.907,30.1378 79.505,30.1378 L74.025,30.1378 L72.465,30.1378 L72.465,0.4518 L77.105,0.4518 L79.505,0.4518 C81.907,0.4518 84.067,0.8118 85.987,1.6118 C87.869,2.3338 89.467,3.4538 90.749,4.8938 C93.107,7.4938 94.349,11.0938 94.349,15.2958" id="Fill-18" fill="#191E1A"></path>
                <polygon id="Fill-20" fill="#191E1A" points="111.462 30.138 116.102 30.138 116.102 0.452 111.462 0.452"></polygon>
                <path d="M143.0644,15.9356 C144.9864,15.9356 146.4264,15.3756 147.3464,14.3356 C148.4664,13.1356 148.6664,11.4556 148.6664,10.2956 C148.6664,9.0936 148.4664,7.4136 147.3464,6.2136 C146.4264,5.1736 144.9864,4.6536 143.0644,4.6536 L138.9044,4.6536 L138.9044,15.9356 L143.0644,15.9356 Z M155.0264,30.1396 L149.7864,30.1396 L142.3044,20.0976 L138.9044,20.0976 L138.9044,30.1396 L134.2644,30.1396 L134.2644,0.4516 L138.1844,0.4516 L143.0644,0.4516 C146.9864,0.4516 149.2684,2.0536 150.4664,3.4136 C152.0264,5.1336 152.8664,7.5336 152.8664,10.2956 C152.8664,13.0156 152.0264,15.4156 150.4664,17.1356 C149.7464,17.9356 148.6264,18.8556 147.0244,19.4156 L155.0264,30.1396 Z" id="Fill-22" fill="#191E1A"></path>
                <polygon id="Fill-23" fill="#191E1A" points="175.3046 12.5352 186.1466 12.5352 186.1466 16.7352 175.3046 16.7352 175.3046 25.9372 188.4666 25.9372 188.4666 30.1392 175.2626 30.1392 170.6646 30.1392 170.6646 0.4512 175.2626 0.4512 188.4666 0.4512 188.4666 4.6132 175.3046 4.6132"></polygon>
                <path d="M226.3496,27.6982 C225.5876,28.1782 224.7876,28.6182 223.9476,28.9782 C222.1076,29.7382 220.1456,30.1382 218.1456,30.1382 C216.1456,30.1382 214.1856,29.7382 212.3856,28.9782 C210.5836,28.2182 209.0256,27.1382 207.6636,25.7782 C206.3036,24.4162 205.2236,22.8582 204.4636,21.0562 C203.7036,19.2562 203.3036,17.2962 203.3036,15.2962 C203.3036,13.2942 203.7036,11.3342 204.4636,9.4942 C205.2236,7.7342 206.3036,6.1342 207.6636,4.7742 C209.0256,3.4122 210.5836,2.3322 212.3856,1.6122 C214.1856,0.8122 216.1456,0.4522 218.1456,0.4522 C220.1456,0.4522 222.1076,0.8122 223.9476,1.6122 C224.1456,1.6922 224.3896,1.8122 224.5876,1.8922 L224.5876,7.3742 C222.7876,5.8942 220.5476,5.0942 218.1456,5.0942 C215.4256,5.0942 212.8656,6.1342 210.9456,8.0942 C209.0256,10.0142 207.9436,12.5742 207.9436,15.2962 C207.9436,18.0162 209.0256,20.5762 210.9456,22.4962 C212.8656,24.4162 215.4256,25.4982 218.1456,25.4982 C220.8676,25.4982 223.4276,24.4162 225.3476,22.4962 C225.7096,22.1362 226.0296,21.7782 226.3496,21.3762 L226.3496,27.6982 Z" id="Fill-24" fill="#191E1A"></path>
                <polygon id="Fill-25" fill="#191E1A" points="262.1074 4.6132 253.9454 4.6132 253.9454 30.1392 249.2634 30.1392 249.2634 4.6132 241.1034 4.6132 241.1034 0.4512 262.1074 0.4512"></polygon>
            </g>
            <g id="Group-5" transform="translate(0.000000, 43.000000)" fill="#21251E">
                <g id="Group">
                    <polygon id="Fill-3" points="0 6.39236111 0 0 1.25838194 0 1.25838194 5.30295872 4.56597222 5.30295872 4.56597222 6.39236111"></polygon>
                    <path d="M13.7603792,5.63970625 C14.0580806,5.63970625 14.3101222,5.57943542 14.5128514,5.45706736 C14.7155806,5.33469931 14.8799556,5.17762986 15.0059764,4.98220625 C15.1301708,4.78678264 15.2196639,4.56396319 15.2708028,4.31009514 C15.3219417,4.05805347 15.3475111,3.79687986 15.3475111,3.53022708 L15.3475111,0.224463194 L16.6004139,0.224463194 L16.6004139,3.53022708 C16.6004139,3.97403958 16.5456222,4.39045625 16.4396917,4.78130347 C16.3319347,5.17032431 16.1657333,5.51185903 15.9374347,5.80408125 C15.7091361,6.09630347 15.4150875,6.32825486 15.0571153,6.49810903 C14.6991431,6.66796319 14.2662889,6.75380347 13.7695111,6.75380347 C13.2508167,6.75380347 12.8106569,6.66431042 12.4490319,6.48532431 C12.0874069,6.30451181 11.7933583,6.06708125 11.5687125,5.77120625 C11.3422403,5.47715764 11.1815181,5.13562292 11.0792403,4.74477569 C10.9787889,4.35575486 10.92765,3.95029653 10.92765,3.53022708 L10.92765,0.224463194 L12.1896847,0.224463194 L12.1896847,3.53022708 C12.1896847,3.80418542 12.2152542,4.06901181 12.2663931,4.31922708 C12.3193583,4.57309514 12.407025,4.79591458 12.5312194,4.99133819 C12.6572403,5.18676181 12.8179625,5.34383125 13.0206917,5.46072014 C13.2215944,5.58126181 13.4681569,5.63970625 13.7603792,5.63970625" id="Fill-4"></path>
                    <polygon id="Fill-6" points="23.9980194 0.224645833 25.6143736 2.63365278 27.2215958 0.224645833 28.5822556 0.224645833 26.2700472 3.51214583 28.5092 6.70832639 27.1485403 6.70832639 25.6143736 4.3888125 24.0692486 6.70832639 22.6994569 6.70832639 24.9386097 3.51214583 22.6282278 0.224645833"></polygon>
                    <path d="M37.4301965,5.63970625 C37.7278979,5.63970625 37.9799396,5.57943542 38.1826687,5.45706736 C38.3872243,5.33469931 38.5515993,5.17762986 38.6776201,4.98220625 C38.8018146,4.78678264 38.8894812,4.56396319 38.9406201,4.31009514 C38.991759,4.05805347 39.0191549,3.79687986 39.0191549,3.53022708 L39.0191549,0.224463194 L40.2702312,0.224463194 L40.2702312,3.53022708 C40.2702312,3.97403958 40.2154396,4.39045625 40.1113354,4.78130347 C40.0035785,5.17032431 39.8355507,5.51185903 39.6072521,5.80408125 C39.3789535,6.09630347 39.0849049,6.32825486 38.7269326,6.49810903 C38.367134,6.66796319 37.9379326,6.75380347 37.4393285,6.75380347 C36.9224604,6.75380347 36.4804743,6.66431042 36.1188493,6.48532431 C35.7572243,6.30451181 35.4631757,6.06708125 35.2385299,5.77120625 C35.013884,5.47715764 34.849509,5.13562292 34.7490576,4.74477569 C34.6504326,4.35575486 34.5992937,3.95029653 34.5992937,3.53022708 L34.5992937,0.224463194 L35.8595021,0.224463194 L35.8595021,3.53022708 C35.8595021,3.80418542 35.8832451,4.06901181 35.9380368,4.31922708 C35.9873493,4.57309514 36.0768424,4.79591458 36.2010368,4.99133819 C36.3270576,5.18676181 36.4896062,5.34383125 36.690509,5.46072014 C36.8895854,5.58126181 37.1379743,5.63970625 37.4301965,5.63970625" id="Fill-8"></path>
                    <path d="M48.269084,3.42977569 L49.8489104,3.42977569 C49.9657993,3.42977569 50.0735562,3.40237986 50.1740076,3.34758819 C50.274459,3.29279653 50.3621257,3.21791458 50.4351812,3.12294236 C50.5082368,3.02979653 50.5648549,2.91838681 50.6068618,2.79053958 C50.6506951,2.66269236 50.6707854,2.52571319 50.6707854,2.37960208 C50.6707854,2.22801181 50.6488687,2.08737986 50.5977299,1.95953264 C50.5484174,1.83168542 50.4844937,1.72027569 50.4023062,1.62712986 C50.3201187,1.53215764 50.2251465,1.45910208 50.119216,1.40796319 C50.0132854,1.35499792 49.9055285,1.32942847 49.7959451,1.32942847 L48.269084,1.32942847 L48.269084,3.42977569 Z M47.0107021,6.70814375 L47.0107021,0.224463194 L49.8781326,0.224463194 C50.175834,0.224463194 50.4497924,0.286560417 50.7036604,0.41258125 C50.9557021,0.536775694 51.1730424,0.701150694 51.3556812,0.903879861 C51.5401465,1.10843542 51.6826049,1.33856042 51.786709,1.59790764 C51.8889868,1.85725486 51.9401257,2.11660208 51.9401257,2.37960208 C51.9401257,2.79967153 51.8360215,3.18138681 51.6259868,3.52657431 C51.4159521,3.86993542 51.129209,4.11832431 50.7730632,4.26991458 L52.2962715,6.70814375 L50.8735146,6.70814375 L49.5128549,4.53291458 L48.269084,4.53291458 L48.269084,6.70814375 L47.0107021,6.70814375 Z" id="Fill-10"></path>
                    <polygon id="Fill-12" points="58.9812201 0.224645833 60.5793104 3.34777083 62.2066229 0.224645833 63.5654562 0.224645833 61.211241 4.44360417 61.211241 6.70832639 59.9583382 6.70832639 59.9583382 4.42534028 57.6114285 0.224645833"></polygon>
                </g>
                <g id="Group-4" transform="translate(75.795139, 0.000000)">
                    <path d="M0.305006944,3.78482569 C0.305006944,3.38849931 0.374409722,2.99765208 0.515041667,2.61045764 C0.653847222,2.22508958 0.858402778,1.87990208 1.12140278,1.57489514 C1.38622917,1.26988819 1.71132639,1.02332569 2.09486806,0.835207639 C2.47658333,0.647089583 2.91674306,0.552117361 3.40804167,0.552117361 C3.98883333,0.552117361 4.48926389,0.683617361 4.91115972,0.944790972 C5.33488194,1.20596458 5.64719444,1.54749931 5.84809722,1.96756875 L4.88011111,2.63420069 C4.80705556,2.45156181 4.71208333,2.29814514 4.59702083,2.17212431 C4.48195833,2.04792986 4.35411111,1.94930486 4.21895833,1.87624931 C4.08015278,1.80319375 3.93952083,1.75022847 3.79340972,1.71552708 C3.64729861,1.68265208 3.50666667,1.66621458 3.37334028,1.66621458 C3.07563889,1.66621458 2.81263889,1.73013819 2.58799306,1.85798542 C2.36334722,1.98583264 2.17340278,2.15020764 2.02546528,2.35476319 C1.87752778,2.55931875 1.76429167,2.79127014 1.68940972,3.04879097 C1.61270139,3.30813819 1.57434722,3.56565903 1.57434722,3.82135347 C1.57434722,4.10809653 1.61818056,4.38205486 1.70767361,4.64688125 C1.79351389,4.91170764 1.91953472,5.14548542 2.08208333,5.34638819 C2.24280556,5.54729097 2.43457639,5.70801319 2.66104861,5.83038125 C2.88569444,5.95274931 3.13408333,6.01302014 3.40073611,6.01302014 C3.53954167,6.01302014 3.68382639,5.99475625 3.8299375,5.95822847 C3.97604861,5.92170069 4.11850694,5.86325625 4.25365972,5.78472153 C4.39063889,5.70618681 4.51848611,5.60390903 4.63172222,5.47788819 C4.7504375,5.35369375 4.84175694,5.20210347 4.91663889,5.02677014 L5.94854861,5.62034653 C5.85175,5.86325625 5.70929167,6.07877014 5.523,6.26323542 C5.33853472,6.44952708 5.12667361,6.60659653 4.88924306,6.73444375 C4.6518125,6.86229097 4.40159722,6.95908958 4.14042361,7.02666597 C3.87925,7.09424236 3.61807639,7.12711736 3.36420833,7.12711736 C2.91309028,7.12711736 2.50032639,7.02849236 2.12774306,6.83489514 C1.75333333,6.63947153 1.42823611,6.38560347 1.15793056,6.07146458 C0.885798611,5.75915208 0.677590278,5.40300625 0.529652778,5.00302708 C0.379888889,4.60487431 0.305006944,4.19941597 0.305006944,3.78482569" id="Fill-26"></path>
                    <path d="M14.6058146,1.94857431 L13.6743562,4.56944236 L15.5080507,4.56944236 L14.6058146,1.94857431 Z M11.5356549,7.07159514 L14.0944257,0.587914583 L15.1153771,0.587914583 L17.665016,7.07159514 L16.3299257,7.07159514 L15.7363493,5.45524097 L13.4643215,5.45524097 L12.8707451,7.07159514 L11.5356549,7.07159514 Z" id="Fill-27"></path>
                    <polygon id="Fill-28" points="29.1241451 7.07196042 29.1241451 2.77994653 27.4548257 5.97612708 26.7699299 5.97612708 25.0969576 2.77994653 25.0969576 7.07196042 23.8367493 7.07196042 23.8367493 0.588279861 25.1901035 0.588279861 27.1078118 4.27758542 29.0419576 0.588279861 30.3843535 0.588279861 30.3843535 7.07196042"></polygon>
                    <path d="M38.4772653,3.79359236 L39.93655,3.79359236 C40.1685014,3.79359236 40.3602722,3.69862014 40.5173417,3.51050208 C40.6725847,3.32238403 40.7492931,3.06668958 40.7492931,2.74341875 C40.7492931,2.57904375 40.7237236,2.43110625 40.6780639,2.30143264 C40.6287514,2.16993264 40.5648278,2.05852292 40.4862931,1.96720347 C40.4077583,1.87588403 40.3146125,1.80830764 40.2068556,1.76082153 C40.100925,1.71516181 39.9931681,1.69324514 39.8835847,1.69324514 L38.4772653,1.69324514 L38.4772653,3.79359236 Z M37.2170569,7.07196042 L37.2170569,0.588279861 L39.9639458,0.588279861 C40.2634736,0.588279861 40.5392583,0.650377083 40.7931264,0.776397917 C41.0433417,0.900592361 41.2606819,1.06496736 41.4451472,1.26769653 C41.6277861,1.47225208 41.7702444,1.70420347 41.8725222,1.96355069 C41.9766264,2.22107153 42.0277653,2.48224514 42.0277653,2.74341875 C42.0277653,3.01737708 41.9802792,3.28402986 41.8816542,3.54155069 C41.7848556,3.80089792 41.6478764,4.03102292 41.4725431,4.23192569 C41.2953833,4.43282847 41.0816958,4.59355069 40.8314806,4.71591875 C40.5812653,4.83828681 40.3091333,4.89855764 40.0114319,4.89855764 L38.4772653,4.89855764 L38.4772653,7.07196042 L37.2170569,7.07196042 Z" id="Fill-29"></path>
                    <polygon id="Fill-30" points="52.8672007 5.96699514 52.8672007 7.07196042 48.3651521 7.07196042 48.3651521 0.588279861 52.7850132 0.588279861 52.7850132 1.69324514 49.6271868 1.69324514 49.6271868 3.25480764 52.3576382 3.25480764 52.3576382 4.27758542 49.6271868 4.27758542 49.6271868 5.96699514"></polygon>
                    <path d="M60.6222306,3.79359236 L62.2002306,3.79359236 C62.3171194,3.79359236 62.42305,3.76619653 62.5253278,3.71140486 C62.6276056,3.65661319 62.7134458,3.58173125 62.7865014,3.48858542 C62.8595569,3.39361319 62.916175,3.28220347 62.9581819,3.15435625 C63.0020153,3.02650903 63.0221056,2.88952986 63.0221056,2.74341875 C63.0221056,2.59182847 62.9983625,2.45119653 62.94905,2.32334931 C62.9015639,2.19550208 62.8358139,2.08409236 62.7536264,1.98912014 C62.6714389,1.89597431 62.5764667,1.82291875 62.4705361,1.77177986 C62.3627792,1.71881458 62.2568486,1.69324514 62.1454389,1.69324514 L60.6222306,1.69324514 L60.6222306,3.79359236 Z M59.3620222,7.07196042 L59.3620222,0.588279861 L62.2276264,0.588279861 C62.5271542,0.588279861 62.8011125,0.650377083 63.0549806,0.776397917 C63.3088486,0.900592361 63.5261889,1.06496736 63.7070014,1.26769653 C63.8896403,1.47225208 64.0320986,1.70420347 64.1362028,1.96355069 C64.2384806,2.22107153 64.2932722,2.48224514 64.2932722,2.74341875 C64.2932722,3.16348819 64.1873417,3.54520347 63.9773069,3.88856458 C63.7690986,4.23375208 63.4823556,4.48031458 63.1225569,4.63373125 L64.6494181,7.07196042 L63.2230083,7.07196042 L61.864175,4.89855764 L60.6222306,4.89855764 L60.6222306,7.07196042 L59.3620222,7.07196042 Z" id="Fill-31"></path>
                    <path d="M79.9169333,3.79359236 L81.4967597,3.79359236 C81.6118222,3.79359236 81.7195792,3.76619653 81.8218569,3.71140486 C81.9223083,3.65661319 82.0081486,3.58173125 82.0830306,3.48858542 C82.1542597,3.39361319 82.2108778,3.28220347 82.2528847,3.15435625 C82.2967181,3.02650903 82.3168083,2.88952986 82.3168083,2.74341875 C82.3168083,2.59182847 82.2948917,2.45119653 82.2455792,2.32334931 C82.1962667,2.19550208 82.1323431,2.08409236 82.0501556,1.98912014 C81.9679681,1.89597431 81.8711694,1.82291875 81.7652389,1.77177986 C81.6593083,1.71881458 81.5515514,1.69324514 81.4419681,1.69324514 L79.9169333,1.69324514 L79.9169333,3.79359236 Z M78.6585514,7.07196042 L78.6585514,0.588279861 L81.5241556,0.588279861 C81.8218569,0.588279861 82.0958153,0.650377083 82.3496833,0.776397917 C82.6035514,0.900592361 82.8208917,1.06496736 83.0017042,1.26769653 C83.1861694,1.47225208 83.3286278,1.70420347 83.4327319,1.96355069 C83.5350097,2.22107153 83.587975,2.48224514 83.587975,2.74341875 C83.587975,3.16348819 83.4838708,3.54520347 83.2738361,3.88856458 C83.0638014,4.23375208 82.7770583,4.48031458 82.4190861,4.63373125 L83.9441208,7.07196042 L82.5195375,7.07196042 L81.1588778,4.89855764 L79.9169333,4.89855764 L79.9169333,7.07196042 L78.6585514,7.07196042 Z" id="Fill-32"></path>
                    <polygon id="Fill-33" points="94.7921403 5.96699514 94.7921403 7.07196042 90.2900917 7.07196042 90.2900917 0.588279861 94.7099528 0.588279861 94.7099528 1.69324514 91.5503 1.69324514 91.5503 3.25480764 94.2825778 3.25480764 94.2825778 4.27758542 91.5503 4.27758542 91.5503 5.96699514"></polygon>
                    <polygon id="Fill-34" points="106.572714 7.07196042 106.572714 2.77994653 104.901568 5.97612708 104.216672 5.97612708 102.545526 2.77994653 102.545526 7.07196042 101.283492 7.07196042 101.283492 0.588279861 102.636846 0.588279861 104.556381 4.27758542 106.490526 0.588279861 107.832922 0.588279861 107.832922 7.07196042"></polygon>
                    <path d="M115.558365,3.83030278 C115.558365,4.10974028 115.598545,4.38187222 115.680733,4.64304583 C115.76292,4.90421944 115.883462,5.13617083 116.038705,5.33707361 C116.193948,5.53797639 116.383892,5.69869861 116.608538,5.82106667 C116.833184,5.94343472 117.090705,6.00370556 117.375622,6.00370556 C117.667844,6.00370556 117.925365,5.94160833 118.146358,5.8155875 C118.369177,5.69139306 118.557295,5.52519167 118.710712,5.31880972 C118.862302,5.11242778 118.977365,4.87865 119.055899,4.62112917 C119.134434,4.36178194 119.172788,4.09695556 119.172788,3.83030278 C119.172788,3.55086528 119.130781,3.27873333 119.046767,3.01755972 C118.960927,2.75638611 118.842212,2.52443472 118.685142,2.32353194 C118.531726,2.12262917 118.341781,1.96373333 118.120788,1.84501806 C117.896142,1.72447639 117.647753,1.66603194 117.36649,1.66603194 C117.074267,1.66603194 116.816747,1.72812917 116.593927,1.85232361 C116.372934,1.97834444 116.184816,2.14271944 116.029573,2.347275 C115.87433,2.55000417 115.755615,2.78195556 115.67708,3.03947639 C115.598545,3.29882361 115.558365,3.56182361 115.558365,3.83030278 M117.357358,7.11780278 C116.90076,7.11780278 116.484344,7.02465694 116.106281,6.83836528 C115.728219,6.6539 115.404948,6.4073375 115.134642,6.09867778 C114.86251,5.79184444 114.654302,5.44117778 114.508191,5.04485139 C114.36208,4.648525 114.290851,4.24489306 114.290851,3.83030278 C114.290851,3.39744861 114.367559,2.98468472 114.522802,2.58835833 C114.678045,2.19203194 114.893559,1.84319167 115.17117,1.53818472 C115.446955,1.23317778 115.773878,0.992094444 116.151941,0.811281944 C116.530003,0.632295833 116.940941,0.542802778 117.384753,0.542802778 C117.841351,0.542802778 118.259594,0.637775 118.63583,0.829545833 C119.013892,1.02131667 119.335337,1.27335833 119.605642,1.58384444 C119.872295,1.89433056 120.080503,2.24682361 120.226615,2.64315 C120.372726,3.03765 120.443955,3.44128194 120.443955,3.84856667 C120.443955,4.28142083 120.367247,4.69235833 120.212003,5.08503194 C120.054934,5.47770556 119.841247,5.82471944 119.567288,6.12607361 C119.29333,6.42742778 118.966406,6.66851111 118.59017,6.84749722 C118.213934,7.02830972 117.802997,7.11780278 117.357358,7.11780278" id="Fill-35"></path>
                    <path d="M131.182574,3.82135347 C131.182574,3.51086736 131.140567,3.22412431 131.056553,2.96295069 C130.970712,2.70177708 130.844692,2.47530486 130.682143,2.28718681 C130.517768,2.09906875 130.313212,1.95295764 130.073956,1.84885347 C129.832872,1.74474931 129.56074,1.69361042 129.255733,1.69361042 L128.1599,1.69361042 L128.1599,5.96736042 L129.255733,5.96736042 C129.566219,5.96736042 129.843831,5.91256875 130.081261,5.80298542 C130.322344,5.69340208 130.525074,5.54181181 130.685796,5.35004097 C130.844692,5.15827014 130.970712,4.93179792 131.056553,4.67062431 C131.140567,4.40762431 131.182574,4.12636042 131.182574,3.82135347 L131.182574,3.82135347 Z M126.899692,7.07232569 L126.899692,0.588645139 L129.255733,0.588645139 C129.785386,0.588645139 130.249289,0.672659028 130.649268,0.844339583 C131.047421,1.01419375 131.379824,1.24614514 131.648303,1.53836736 C131.914956,1.83058958 132.117685,2.17212431 132.251011,2.56662431 C132.384337,2.95747153 132.451914,3.37571458 132.451914,3.82135347 C132.451914,4.31447847 132.377032,4.76011736 132.229094,5.15827014 C132.079331,5.55824931 131.865643,5.89795764 131.584379,6.18104792 C131.304942,6.46413819 130.968886,6.68330486 130.574386,6.83854792 C130.181712,6.99379097 129.743379,7.07232569 129.255733,7.07232569 L126.899692,7.07232569 Z" id="Fill-36"></path>
                    <polygon id="Fill-37" points="143.43746 5.96699514 143.43746 7.07196042 138.935412 7.07196042 138.935412 0.588279861 143.355273 0.588279861 143.355273 1.69324514 140.19562 1.69324514 140.19562 3.25480764 142.927898 3.25480764 142.927898 4.27758542 140.19562 4.27758542 140.19562 5.96699514"></polygon>
                    <polygon id="Fill-38" points="149.929725 7.07196042 149.929725 0.588279861 151.189933 0.588279861 151.189933 5.96699514 154.495697 5.96699514 154.495697 7.07196042"></polygon>
                    <polygon id="Fill-39" points="160.787972 7.07177778 162.046354 7.07177778 162.046354 0.597229167 160.787972 0.597229167"></polygon>
                    <polygon id="Fill-40" points="170.139631 2.91710833 170.139631 7.07214306 168.879423 7.07214306 168.879423 0.5884625 169.856541 0.5884625 173.233534 4.84394861 173.233534 0.597594444 174.495569 0.597594444 174.495569 7.07214306 173.472791 7.07214306"></polygon>
                    <path d="M185.672703,6.3415875 C185.174099,6.85845556 184.598787,7.11780278 183.946766,7.11780278 C183.532176,7.11780278 183.143155,7.02648333 182.777877,6.84384444 C182.412599,6.66120556 182.094808,6.41646944 181.824502,6.10963611 C181.55237,5.80097639 181.338683,5.44665694 181.185266,5.04485139 C181.028197,4.64304583 180.951488,4.22662917 180.951488,3.793775 C180.951488,3.3499625 181.028197,2.92989306 181.185266,2.53721944 C181.338683,2.14637222 181.556023,1.80118472 181.831808,1.50713611 C182.109419,1.21126111 182.436342,0.975656944 182.810752,0.80215 C183.185162,0.630469444 183.588794,0.542802778 184.028953,0.542802778 C184.620703,0.542802778 185.124787,0.67065 185.544856,0.926344444 C185.964926,1.18203889 186.282717,1.5254 186.494578,1.95825417 L185.555815,2.65228194 C185.395092,2.32901111 185.177752,2.08244861 184.901967,1.91259444 C184.624356,1.74091389 184.317523,1.6569 183.983294,1.6569 C183.714815,1.6569 183.473731,1.71534444 183.258217,1.83040694 C183.040877,1.94546944 182.858238,2.10436528 182.704822,2.30526806 C182.551405,2.50617083 182.434516,2.73812222 182.348676,2.99929583 C182.262835,3.26046944 182.219002,3.53808056 182.219002,3.83030278 C182.219002,4.13530972 182.266488,4.4184 182.359634,4.68322639 C182.447301,4.94805278 182.576974,5.17817778 182.741349,5.37360139 C182.903898,5.569025 183.099322,5.72244167 183.322141,5.83385139 C183.543134,5.9470875 183.789697,6.00370556 184.056349,6.00370556 C184.651752,6.00370556 185.190537,5.70783056 185.672703,5.11790694 L185.672703,4.66130972 L184.366835,4.66130972 L184.366835,3.73898333 L186.713745,3.73898333 L186.713745,7.07214306 L185.672703,7.07214306 L185.672703,6.3415875 Z" id="Fill-41"></path>
                </g>
            </g>
        </g>
    </g>
</svg>
