<?xml version="1.0" encoding="UTF-8"?>
<svg width="327px" height="285px" viewBox="0 0 327 285" version="1.1" xmlns="http://www.w3.org/2000/svg" xmlns:xlink="http://www.w3.org/1999/xlink">
    <!-- Generator: Sketch 59.1 (86144) - https://sketch.com -->
    <title>logo-large</title>
    <desc>Created with Sketch.</desc>
    <g id="Biz-Cards" stroke="none" stroke-width="1" fill="none" fill-rule="evenodd">
        <g id="Artboard" transform="translate(-202.000000, -54.000000)">
            <g id="logo-large" transform="translate(202.000000, 54.000000)">
                <polygon id="Page-1" fill="#F9F7EA" points="163.5 283.215907 0 283.215907 81.759957 141.601315 163.5 0 327 283.215907"></polygon>
                <rect id="Rectangle" fill="#F9F7EA" x="26" y="149" width="275" height="53"></rect>
                <g id="Group" opacity="0.100000001" transform="translate(40.000000, 26.000000)" fill="#BCA070">
                    <path d="M181.513,235.132 C181.487,234.907 181.466,234.672 181.5,234.45 C181.821,232.341 181.458,230.245 181.363,228.145 C181.306,226.898 181.222,225.63 180.946,224.418 C180.232,221.287 180.073,218.12 180.087,214.931 C180.089,214.475 180.107,214.018 180.075,213.564 C179.88,210.737 179.694,207.911 179.721,205.075 C179.727,204.453 179.619,203.83 179.575,203.207 C179.485,201.964 179.239,200.721 179.606,199.479 C179.669,199.266 179.691,199.023 179.66,198.803 C179.484,197.568 179.301,196.334 179.094,195.104 C178.794,193.32 178.546,191.537 178.653,189.717 C178.71,188.756 178.824,187.76 178.643,186.831 C178.26,184.865 178.231,182.874 178.042,180.896 C177.956,179.998 177.952,179.081 178.24,178.191 C178.324,177.93 178.337,177.618 178.286,177.347 C178.059,176.121 178.015,174.863 177.506,173.686 C177.265,173.128 177.105,172.47 177.137,171.87 C177.226,170.176 177.204,168.49 177.096,166.801 C177.03,165.779 177.207,164.82 177.518,163.812 C178.239,161.48 179.583,159.551 181.002,157.644 C181.882,156.461 182.819,155.321 183.687,154.13 C183.947,153.773 184.086,153.319 184.239,152.894 C184.566,151.984 184.85,151.059 185.184,150.153 C185.341,149.724 185.383,149.33 185.368,148.857 C185.328,147.622 184.969,146.37 185.438,145.137 C185.511,144.946 185.426,144.693 185.406,144.469 C185.245,142.606 185.639,140.733 185.317,138.872 C185.712,137.858 185.456,136.857 185.277,135.848 C185.208,135.459 185.211,135.057 185.189,134.661 C185.133,133.638 185.087,132.614 185.021,131.592 C185.007,131.37 184.943,131.146 184.865,130.936 C184.833,130.85 184.699,130.739 184.621,130.746 C184.467,130.76 184.245,130.806 184.184,130.914 C184.051,131.146 183.926,131.428 183.931,131.687 C183.95,132.881 183.881,134.098 184.094,135.26 C184.458,137.247 184.347,139.233 184.348,141.221 C184.349,142.287 184.357,143.377 183.822,144.475 C183.35,144.395 182.87,144.313 182.47,144.245 C182.357,144.026 182.268,143.931 182.26,143.828 C182.159,142.592 181.911,141.368 182.069,140.109 C182.127,139.649 182.27,139.059 181.692,138.727 C181.636,138.751 181.568,138.759 181.538,138.797 C181.435,138.924 181.326,139.052 181.256,139.198 C180.735,140.272 180.93,141.425 180.881,142.555 C180.826,143.834 180.843,145.054 182.03,145.899 C182.158,145.991 182.187,146.219 182.312,146.321 C183.536,147.318 183.476,148.549 182.965,149.858 C182.802,150.277 182.63,150.698 182.409,151.088 C181.704,152.328 180.758,153.391 179.893,154.516 C179.248,155.354 178.341,155.826 177.617,156.538 C177.307,156.843 176.748,156.57 176.742,156.126 C176.728,154.993 176.538,153.857 176.87,152.729 C176.996,152.3 177.049,151.829 177.032,151.382 C176.952,149.341 176.972,147.302 176.794,145.258 C176.638,143.464 176.195,141.699 176.302,139.869 C176.375,138.634 176.037,137.364 176.186,136.147 C176.376,134.591 175.999,133.117 175.908,131.605 C175.875,131.044 175.689,130.482 175.72,129.929 C175.817,128.224 175.646,126.528 175.599,124.828 C175.574,123.939 175.784,123.016 175.36,122.159 C175.955,121.149 175.519,120.038 175.644,118.978 C175.788,117.746 175.809,116.439 175.55,115.237 C175.267,113.927 175.257,112.649 175.307,111.344 C175.35,110.211 175.321,109.069 175.454,107.947 C175.702,105.846 175.807,103.758 175.501,101.654 C175.388,100.87 175.4,100.069 175.355,99.275 C175.742,98.667 175.856,98.015 175.897,97.351 C175.856,97.256 175.816,97.158 175.757,97.093 C175.654,97.005 175.537,96.976 175.479,96.859 C175.391,96.727 175.376,96.522 175.303,96.361 C175.201,96.171 175.099,96.01 175.025,95.791 C174.938,95.542 174.865,95.279 174.748,95.045 C174.645,94.826 174.455,94.592 174.397,94.343 C174.353,94.153 174.411,94.095 174.323,93.934 C174.236,93.89 174.192,93.817 174.163,93.729 C174.119,93.641 174.104,93.539 174.119,93.436 C174.046,93.202 173.885,93.042 173.768,92.837 C173.636,92.574 173.548,92.281 173.358,92.047 C173.124,91.769 172.861,91.725 172.568,91.725 C172.393,91.345 172.174,90.95 171.925,90.614 C171.237,89.665 170.704,88.647 170.199,87.61 C170.145,88.01 170.083,88.409 170.055,88.812 C170.021,89.319 170.062,89.832 170.05,90.342 C170.032,91.191 169.992,92.04 169.974,92.889 C169.964,93.398 169.981,93.906 169.982,94.415 C169.983,96.636 169.883,98.864 170.016,101.077 C170.119,102.782 169.982,104.48 170.087,106.182 C170.146,107.137 170.014,108.102 170.001,109.064 C169.991,109.8 170.027,110.537 170.052,111.274 C170.088,112.354 170.115,113.434 170.178,114.513 C170.3,116.609 170.506,118.702 170.559,120.799 C170.598,122.329 170.842,123.857 170.655,125.391 C171.304,127.481 170.708,129.717 171.399,131.803 C171.212,133.795 171.436,135.775 171.56,137.758 C171.706,140.079 171.35,142.412 171.706,144.73 C171.749,145.008 171.704,145.299 171.705,145.584 C171.713,147.738 171.701,149.893 171.74,152.046 C171.764,153.399 172.157,154.749 171.753,156.104 C171.738,156.156 171.75,156.217 171.754,156.274 C171.875,157.745 171.999,159.215 172.113,160.686 C172.135,160.964 172.119,161.244 172.118,161.523 C172.107,163.101 172.065,164.678 172.097,166.255 C172.115,167.154 172.09,168.104 172.371,168.934 C172.809,170.232 172.619,171.517 172.652,172.813 C172.683,174.007 172.737,175.2 172.8,176.393 C172.839,177.13 172.952,177.864 172.965,178.601 C173.015,181.559 173.028,184.518 173.081,187.475 C173.093,188.211 173.222,188.944 173.258,189.68 C173.31,190.758 173.414,191.844 173.338,192.915 C173.214,194.663 173.092,196.408 173.081,198.16 C173.071,199.678 172.63,201.106 171.806,202.345 C170.578,204.189 169.24,205.961 167.893,207.721 C167.391,208.378 166.811,209.013 166.035,209.373 C165.456,208.638 165.319,207.896 165.504,207.075 C165.681,206.289 165.611,205.508 165.502,204.709 C165.231,202.729 165.338,200.746 165.627,198.771 C165.7,198.267 165.72,197.75 165.711,197.24 C165.693,196.217 165.546,195.188 165.621,194.174 C165.763,192.237 165.724,190.314 165.53,188.386 C165.456,187.652 165.4,186.912 165.391,186.174 C165.335,181.909 165.406,177.646 165.024,173.383 C164.818,171.075 165.034,168.728 165.095,166.399 C165.116,165.607 165.267,164.82 165.327,164.028 C165.466,162.204 165.115,160.409 164.916,158.611 C164.789,157.471 164.794,156.345 164.793,155.207 C164.792,153.619 164.862,152.009 164.633,150.448 C164.227,147.683 163.997,144.92 164.048,142.128 C164.074,140.707 164.105,139.281 164.021,137.863 C163.923,136.219 163.673,134.584 163.541,132.941 C163.247,129.256 162.844,125.572 162.749,121.881 C162.656,118.296 162.42,114.724 162.229,111.147 C162.099,108.709 161.853,106.272 161.549,103.848 C161.378,102.488 161.336,101.14 161.348,99.777 C161.361,98.3 161.393,96.81 161.228,95.348 C161.062,93.873 160.964,92.402 160.945,90.924 C160.926,89.396 160.518,87.898 160.731,86.342 C160.843,85.519 160.53,84.645 160.589,83.807 C160.714,81.994 160.921,80.184 161.163,78.382 C161.311,77.276 161.646,76.202 161.094,75.097 C160.93,74.768 161.018,74.313 160.988,73.917 C160.958,73.519 161.019,73.085 160.878,72.731 C160.314,71.314 160.32,69.837 160.308,68.356 C160.303,67.706 160.187,67.124 159.581,66.722 C159.36,66.576 159.187,66.311 159.065,66.065 C158.389,64.693 157.442,63.453 157.109,61.911 C157.029,61.542 156.783,61.167 156.517,60.886 C155.289,59.589 154.531,57.998 153.645,56.481 C153.07,55.496 152.595,54.485 152.178,53.423 C151.745,52.32 151.43,51.145 150.673,50.187 C150.302,48.621 149.259,47.193 149.697,45.457 C149.516,45.098 149.336,44.737 149.157,44.376 C149.147,44.376 149.139,44.3715918 149.128,44.3715918 C148.909,44.398 148.64,44.646 148.54,44.863 C148.429,45.104 148.467,45.421 148.47,45.705 C148.488,47.7 148.301,49.68 148.112,51.664 C147.871,54.205 147.527,56.758 148.131,59.304 C148.183,59.522 148.174,59.755 148.188,59.982 C148.265,61.228 148.33,62.476 148.421,63.721 C148.495,64.741 148.669,65.758 148.675,66.777 C148.684,68.531 148.616,70.285 148.683,72.041 C148.724,73.116 148.701,74.194 148.723,75.27 C148.738,76.065 148.857,76.865 148.795,77.652 C148.567,80.56 149.131,83.44 149.06,86.341 C149.048,86.84 149.249,87.342 149.328,87.847 C149.449,88.629 149.672,89.421 149.632,90.198 C149.565,91.51 149.708,92.799 149.796,94.097 C149.846,94.835 149.833,95.577 149.835,96.318 C149.839,98.255 149.83,100.192 149.839,102.129 C149.841,102.525 149.821,102.946 149.944,103.311 C150.276,104.306 150.273,105.326 150.292,106.348 C150.311,107.431 150.307,108.513 150.33,109.595 C150.359,110.955 150.442,112.314 150.432,113.673 C150.42,115.548 150.299,117.422 150.306,119.296 C150.313,121.399 150.29,123.498 150.474,125.609 C150.607,127.124 150.606,128.663 150.79,130.185 C150.81,130.354 150.8,130.526 150.8,130.697 C150.796,132.517 150.773,134.337 150.791,136.156 C150.807,137.806 150.849,139.456 150.91,141.105 C150.974,142.797 151.116,144.488 151.146,146.181 C151.175,147.772 151.109,149.365 151.073,150.957 C151.041,152.377 151.001,153.797 150.947,155.217 C150.924,155.839 150.799,156.463 150.823,157.082 C150.903,159.236 151.023,161.389 151.139,163.541 C151.246,165.527 151.398,167.511 151.471,169.499 C151.516,170.692 151.458,171.89 151.428,173.085 C151.381,174.95 151.144,176.805 151.403,178.683 C151.556,179.796 151.499,180.949 151.442,182.079 C151.386,183.189 151.468,184.331 151.035,185.421 C150.798,185.386 150.57,185.422 150.487,185.329 C149.549,184.277 148.447,183.313 147.763,182.112 C146.956,180.696 146.477,179.085 146.624,177.374 C146.696,176.525 146.706,175.671 146.725,174.819 C146.757,173.411 146.849,172.021 147.389,170.69 C147.579,170.223 147.639,169.702 147.746,169.203 C147.793,168.983 147.741,168.607 147.851,168.556 C148.705,168.162 148.337,167.351 148.417,166.768 C148.545,165.839 148.239,164.911 147.897,163.98 C147.174,164.2 146.897,164.539 146.985,165.246 C147.154,166.599 146.875,167.865 146.077,169.041 C145.584,168.383 145.544,167.704 145.587,167.016 C145.677,165.587 145.605,164.188 145.237,162.785 C144.628,160.461 144.375,158.086 144.556,155.678 C144.599,155.114 144.532,154.571 144.351,154.056 C143.826,154.105 143.698,154.384 143.691,154.76 C143.675,155.555 143.602,156.354 143.657,157.144 C143.765,158.669 143.388,160.217 143.897,161.724 C143.983,161.979 143.973,162.305 143.9,162.568 C143.34,164.584 143.973,166.637 143.691,168.659 C143.669,168.823 143.696,169.005 143.744,169.165 C143.893,169.67 143.883,170.159 143.782,170.68 C143.709,171.052 143.797,171.458 143.832,171.848 C143.898,172.582 144.012,173.314 144.043,174.049 C144.073,174.783 144.019,175.519 144.013,176.255 C144.004,177.503 144.057,178.75 144.089,179.996 C144.131,181.67 144.75,183.189 145.043,184.79 C145.072,184.953 145.143,185.125 145.244,185.256 C145.868,186.06 146.477,186.879 147.146,187.646 C148.229,188.889 149.319,190.128 150.472,191.305 C151.298,192.148 151.57,193.131 151.544,194.251 C151.539,194.479 151.5,194.705 151.499,194.933 C151.492,196.811 151.472,198.689 151.493,200.568 C151.524,203.343 151.729,206.125 151.599,208.891 C151.426,212.595 151.551,216.294 151.495,219.994 C151.487,220.502 151.533,221.024 151.649,221.517 C152.084,223.367 152.072,225.24 152.036,227.121 C152.004,228.768 151.714,230.405 151.905,232.06 C152.008,232.96 152.059,233.87 152.073,234.777 C152.109,237.168 152.084,239.56 152.142,241.95 C152.166,242.923 152.167,243.862 151.845,244.804 C151.697,245.236 151.645,245.669 151.681,246.089 C152.194,246.228 152.703,246.353 153.235,246.03 C153.293,246.001 153.41,246.089 153.498,246.132 C153.951,246.323 154.434,246.381 154.887,246.206 C155.896,245.781 156.92,245.796 157.958,246.103 C158.982,246.41 160.006,246.41 161.03,246.059 C161.205,246.001 161.454,245.899 161.571,245.957 C162.331,246.396 163.033,245.84 163.764,245.899 C165.183,246.03 166.631,245.664 168.02,246.191 C168.166,246.235 168.371,246.089 168.561,246.03 C168.699,245.987 168.833,245.966 168.966,245.97 C168.942,245.042 168.914,244.115 168.859,243.187 C168.832,242.734 168.796,242.28 168.732,241.831 C168.619,241.045 168.409,240.266 168.365,239.477 C168.224,236.98 167.661,234.521 167.707,232.008 C167.712,231.729 167.674,231.425 167.562,231.174 C167.085,230.096 167.078,228.957 167.103,227.819 C167.131,226.503 166.995,225.209 166.779,223.912 C166.386,221.549 166.343,219.17 166.62,216.79 C166.685,216.229 166.796,215.666 166.951,215.122 C167.628,212.741 168.76,210.593 170.364,208.706 C170.953,208.013 171.553,207.363 171.865,206.459 C172.028,205.99 172.336,205.397 173.143,205.396 C173.196,205.658 173.29,205.919 173.298,206.183 C173.361,208.23 173.445,210.277 173.449,212.324 C173.452,214.145 173.34,215.966 173.323,217.787 C173.314,218.695 173.45,219.605 173.443,220.513 C173.418,223.92 173.305,227.328 173.599,230.73 C173.628,231.067 173.667,231.41 173.641,231.746 C173.507,233.45 173.568,235.152 173.782,236.839 C173.977,238.368 174.133,239.891 174.101,241.433 C174.069,242.98 174.028,244.529 174.045,246.076 C174.064,246.082 174.085,246.081 174.104,246.089 C174.674,246.293 175.172,245.796 175.757,245.884 C176.225,245.957 176.707,245.884 177.19,245.913 C177.468,245.928 177.746,246.001 178.009,246.103 C178.755,246.396 179.501,246.381 180.246,246.118 C180.789,245.927 181.331,245.869 181.874,245.93 C181.863,245.688 181.859,245.444 181.854,245.197 C181.79,241.84 181.907,238.478 181.513,235.132" id="Fill-88"></path>
                    <path d="M93.84,239.74 C93.922,239.188 93.833,238.605 93.786,238.039 C93.744,237.532 93.626,237.031 93.586,236.523 C93.429,234.539 93.332,232.549 93.134,230.569 C92.897,228.192 92.56,225.826 92.547,223.431 C92.544,222.864 92.495,222.295 92.442,221.729 C92.38,221.056 92.277,220.386 92.216,219.712 C92.155,219.033 92.12,218.351 92.083,217.67 C91.99,215.965 91.89,214.262 91.82,212.556 C91.772,211.39 92.068,210.278 92.687,209.307 C94.244,206.863 95.915,204.514 98.202,202.656 C99.161,201.877 100.025,200.957 100.829,200.013 C101.672,199.022 102.425,197.948 103.155,196.868 C103.913,195.747 104.329,194.423 105.186,193.35 C105.354,193.138 105.406,192.828 105.492,192.557 C105.924,191.195 106.135,189.796 106.178,188.368 C106.198,187.686 106.251,187.004 106.298,186.323 C106.398,184.851 106.463,183.375 106.619,181.908 C106.781,180.379 106.571,178.873 106.489,177.357 C106.462,176.855 106.591,176.305 106.425,175.86 C106.132,175.075 106.183,174.29 106.179,173.499 C106.167,170.936 106.206,168.372 106.16,165.809 C106.139,164.68 105.982,163.552 105.843,162.428 C105.804,162.112 105.521,161.991 105.091,162.123 C104.959,163.067 104.912,164.086 104.459,165.011 C104.376,165.181 104.489,165.449 104.514,165.671 C104.615,166.582 104.577,167.475 104.358,168.377 C104.212,168.977 104.212,169.616 104.179,170.239 C104.148,170.802 104.179,171.369 104.152,171.933 C104.099,173.069 104.041,174.206 103.955,175.339 C103.887,176.232 103.773,177.12 103.676,178.042 C102.842,178.072 102.3,177.579 101.661,177.391 C100.997,177.196 100.588,176.693 100.455,176.061 C100.269,175.179 100.193,174.273 100.087,173.376 C99.987,172.534 99.921,171.688 99.803,170.849 C99.788,170.743 99.549,170.599 99.415,170.6 C99.278,170.6 99.121,170.737 99.012,170.852 C98.945,170.922 98.93,171.062 98.929,171.171 C98.914,172.978 99.07,174.79 98.751,176.588 C98.702,176.866 98.688,177.16 98.721,177.439 C98.837,178.447 99.163,179.324 100.251,179.676 C100.52,179.763 100.802,179.837 101.044,179.977 C103.127,181.178 103.889,182.74 103.487,184.914 C103.301,185.92 103.107,186.926 102.967,187.94 C102.792,189.197 102.432,190.343 101.502,191.276 C101.193,191.585 100.963,192.022 100.828,192.443 C100.68,192.907 100.387,193.215 100.074,193.548 C98.639,195.075 97.074,196.488 95.938,198.277 C95.819,198.465 95.618,198.598 95.467,198.767 C94.898,199.4 94.315,200.022 93.773,200.677 C93.145,201.436 92.391,201.964 91.294,202.257 C91.115,201.283 91.222,200.382 91.185,199.492 C91.15,198.642 91.104,197.792 91.041,196.944 C90.983,196.152 90.794,195.356 90.842,194.572 C90.988,192.169 90.512,189.813 90.371,187.433 C90.24,185.23 89.782,183.047 89.96,180.819 C89.986,180.484 89.904,180.141 89.88,179.801 C89.744,177.823 89.56,175.847 89.49,173.866 C89.422,171.932 89.516,169.992 89.454,168.057 C89.378,165.67 89.583,163.29 89.525,160.9 C89.478,158.933 89.2,156.923 89.81,154.974 C89.843,154.87 89.807,154.746 89.819,154.633 C90.076,152.194 89.324,149.779 89.631,147.338 C89.645,147.233 89.555,147.119 89.552,147.009 C89.526,146.102 89.366,145.168 89.528,144.294 C89.718,143.271 89.831,142.293 89.559,141.284 C89.531,141.179 89.542,141.055 89.565,140.946 C90.108,138.47 89.673,135.96 89.823,133.47 C89.877,132.57 89.788,131.661 89.771,130.757 C89.768,130.59 89.857,130.4 89.803,130.259 C89.267,128.867 89.481,127.353 89.098,125.942 C88.748,124.654 88.902,123.342 88.828,122.041 C88.767,120.964 88.716,119.887 88.666,118.809 C88.614,117.687 88.548,116.564 88.527,115.441 C88.514,114.76 88.677,114.062 88.577,113.4 C88.396,112.195 88.512,111.017 88.631,109.827 C88.676,109.38 88.679,108.926 88.657,108.478 C88.6,107.262 88.818,106.143 89.4,105.037 C90.378,103.174 91.502,101.42 92.764,99.741 C93.444,98.836 94.025,97.856 94.699,96.945 C95.093,96.412 95.216,95.856 95.254,95.204 C95.333,93.851 95.378,92.462 96.45,91.405 C96.561,91.296 96.576,91.093 96.64,90.936 C97.049,89.936 97.465,88.939 97.865,87.936 C98.25,86.973 98.588,85.933 98.305,84.947 C98.047,84.046 97.999,83.166 97.942,82.262 C97.93,82.069 97.781,81.885 97.587,81.459 C97.403,82.079 97.229,82.442 97.195,82.818 C97.109,83.78 97.112,84.751 97.024,85.713 C96.983,86.152 96.894,86.63 96.668,86.99 C96.533,87.205 96.081,87.318 95.786,87.294 C95.63,87.282 95.464,86.893 95.38,86.647 C95.31,86.441 95.349,86.196 95.349,85.968 C95.346,84.83 95.297,83.69 95.355,82.555 C95.495,79.821 94.811,77.116 95.082,74.377 C95.104,74.152 95.03,73.794 94.554,73.764 C94.462,73.921 94.277,74.098 94.258,74.291 C94.161,75.31 94.04,76.333 94.051,77.353 C94.073,79.514 94.197,81.673 94.227,83.833 C94.241,84.792 94.106,85.753 94.079,86.714 C94.041,88.019 94.067,89.327 94.018,90.632 C93.984,91.545 93.778,92.431 93.329,93.242 C92.662,94.444 91.782,95.485 90.794,96.425 C89.983,97.197 89.113,97.913 87.849,98.094 C87.477,96.589 87.077,95.17 87.09,93.681 C87.111,91.128 86.983,88.576 87.063,86.023 C87.074,85.684 87.019,85.342 86.988,85.002 C86.927,84.325 86.823,83.649 86.805,82.97 C86.749,80.75 86.543,78.544 86.254,76.342 C86.076,74.992 85.956,73.63 85.906,72.27 C85.876,71.483 86.013,70.69 86.053,69.899 C85.964,70.046 85.882,70.201 85.83,70.359 C85.771,70.52 85.713,70.695 85.683,70.856 C85.654,71.046 85.625,71.178 85.537,71.353 C85.479,71.47 85.464,71.397 85.405,71.587 C85.347,71.777 85.376,71.967 85.289,72.172 C85.215,72.362 85.201,72.421 85.172,72.596 C85.142,72.845 85.054,73.064 84.952,73.298 C84.864,73.518 84.762,73.708 84.66,73.898 C84.528,74.132 84.499,74.38 84.382,74.6 C84.235,74.892 83.958,75.024 83.812,75.302 C83.768,75.434 83.782,75.594 83.724,75.726 C83.577,76.048 83.373,76.311 83.197,76.603 C83.007,76.911 82.861,77.203 82.641,77.481 C82.466,77.686 82.437,77.876 82.217,78.081 C82.042,78.256 81.91,78.329 81.779,78.578 C81.574,78.943 81.34,79.324 81.15,79.718 C80.872,80.289 80.726,80.976 80.536,81.59 C80.433,81.941 80.316,82.307 80.228,82.658 C80.155,82.95 80.141,83.287 80.009,83.565 C79.892,83.813 79.629,84.033 79.497,84.267 C79.336,84.545 79.234,84.866 79.073,85.159 C78.868,85.481 78.634,85.788 78.473,86.139 C78.327,86.431 78.239,86.738 78.02,86.987 C77.669,87.367 77.376,87.616 77.128,88.069 C76.762,88.727 76.616,89.488 76.265,90.16 C75.972,90.76 75.622,91.36 75.388,91.989 C75.022,92.998 74.583,94.095 73.808,94.87 C73.777,94.901 73.741,94.926 73.709,94.956 C73.683,95.292 73.655,95.628 73.628,95.966 C73.596,96.36 73.579,96.76 73.605,97.154 C73.749,99.304 74.005,101.453 73.554,103.599 C73.508,103.815 73.515,104.064 73.573,104.277 C73.759,104.96 73.608,105.63 73.581,106.31 C73.493,108.573 72.927,110.831 73.493,113.104 C73.532,113.263 73.487,113.443 73.484,113.614 C73.442,115.66 73.382,117.706 73.369,119.752 C73.363,120.66 73.434,121.571 73.503,122.478 C73.585,123.555 73.763,124.628 73.792,125.705 C73.846,127.691 73.791,129.68 73.839,131.667 C73.901,134.282 73.637,136.895 73.844,139.513 C73.952,140.873 73.914,142.245 73.918,143.611 C73.92,144.056 73.848,144.5 73.814,144.903 C73.617,144.978 73.511,145.055 73.408,145.05 C73.242,145.043 73.052,145.024 72.918,144.938 C71.612,144.1 70.424,143.141 69.698,141.719 C69.465,141.263 69.209,140.819 68.961,140.371 C68.063,138.752 67.5,137.063 67.577,135.166 C67.64,133.58 67.692,131.972 67.038,130.454 C66.974,130.304 66.977,130.117 66.977,129.948 C66.981,127.719 66.482,125.556 66.115,123.376 C66.078,123.158 66.07,122.799 65.578,122.826 C65.49,123.462 65.629,124.077 65.661,124.693 C65.767,126.787 66.218,128.873 65.769,130.983 C65.689,131.356 65.795,131.773 65.84,132.168 C65.898,132.676 65.984,133.181 66.051,133.689 C66.087,133.964 66.172,134.265 65.789,134.397 C64.725,133.695 64.154,132.705 64.02,131.445 C63.972,130.993 63.899,130.542 63.81,130.097 C63.767,129.88 63.677,129.667 63.572,129.471 C63.528,129.389 63.365,129.289 63.304,129.314 C63.167,129.37 62.968,129.491 62.958,129.6 C62.928,129.936 62.923,130.291 63.001,130.617 C63.268,131.741 63.283,132.885 63.176,134.013 C63.104,134.766 63.345,135.349 63.75,135.904 C64.219,136.547 64.809,137.113 65.2,137.796 C65.614,138.521 65.986,139.255 66.551,139.887 C66.764,140.125 66.883,140.487 66.947,140.812 C67.347,142.83 68.397,144.462 69.753,145.978 C71.187,147.579 72.481,149.305 73.853,150.963 C74.166,151.341 74.275,151.753 74.265,152.223 C74.235,153.588 74.375,154.94 74.505,156.299 C74.663,157.935 74.643,159.587 74.737,161.231 C74.865,163.49 75.059,165.746 75.168,168.006 C75.303,170.785 75.075,173.578 75.493,176.346 C75.518,176.512 75.512,176.694 75.471,176.855 C75.281,177.587 75.435,178.314 75.461,179.045 C75.5,180.18 75.498,181.317 75.502,182.453 C75.503,182.734 75.431,183.017 75.438,183.298 C75.489,185.229 75.58,187.161 75.599,189.093 C75.61,190.228 75.45,191.365 75.477,192.499 C75.528,194.658 75.655,196.815 75.756,198.973 C75.825,200.45 75.923,201.926 75.971,203.403 C76.002,204.366 76.007,205.332 75.952,206.293 C75.856,207.995 75.705,209.694 75.58,211.394 C75.572,211.506 75.568,211.624 75.592,211.732 C75.936,213.301 75.908,214.893 75.945,216.488 C76.002,218.985 76.2,221.48 76.251,223.978 C76.311,226.939 76.282,229.902 76.28,232.864 C76.279,233.191 76.195,233.519 76.145,233.877 C75.911,233.857 75.733,233.881 75.589,233.821 C74.68,233.445 73.913,232.91 73.34,232.067 C72.451,230.757 71.301,229.621 70.652,228.069 C71.026,226.446 71.352,224.774 71.811,223.14 C72.094,222.131 72.257,221.132 72.083,220.114 C71.779,218.326 71.421,216.546 71.043,214.772 C70.987,214.509 70.868,214.153 70.374,214.023 C70.288,215.712 70.19,217.341 70.129,218.972 C70.112,219.422 70.146,219.891 70.255,220.327 C70.621,221.79 70.139,222.988 69.126,224.237 C69.034,223.752 68.954,223.429 68.914,223.101 C68.648,220.905 68.386,218.708 68.132,216.51 C68.047,215.776 68.084,215.013 67.898,214.308 C67.66,213.41 67.659,212.518 67.626,211.61 C67.597,210.821 67.566,209.987 67.297,209.262 C66.884,208.155 66.874,207.043 66.868,205.906 C66.864,205.055 66.854,204.203 66.8,203.355 C66.663,201.2 66.187,199.076 66.2,196.906 C66.202,196.68 66.185,196.443 66.113,196.232 C66.066,196.094 65.905,195.996 65.795,195.88 C65.666,196.038 65.421,196.2 65.426,196.354 C65.461,197.486 65.537,198.618 65.619,199.748 C65.68,200.598 65.778,201.446 65.845,202.296 C65.885,202.803 65.902,203.312 65.92,203.821 C65.998,206.092 66.045,208.365 66.16,210.634 C66.226,211.934 66.448,213.227 66.517,214.527 C66.609,216.265 66.553,218.01 66.874,219.733 C66.946,220.122 66.964,220.525 66.968,220.921 C66.982,222.117 66.925,223.316 66.993,224.508 C67.08,226.037 67.188,227.572 67.424,229.083 C67.663,230.615 68.264,231.935 69.613,232.955 C70.952,233.967 72.22,235.135 73.014,236.699 C73.242,237.148 73.528,237.69 73.936,237.901 C74.921,238.409 75.308,239.401 76.008,240.129 C76.379,240.515 76.519,240.99 76.558,241.525 C76.662,242.937 76.581,244.358 76.866,245.767 C76.872,245.797 76.868,245.83 76.872,245.861 C80.643,245.865 84.417,245.872 88.184,245.884 C90.092,245.884 92.006,245.887 93.916,245.889 C93.897,245.54 93.869,245.193 93.857,244.842 C93.8,243.141 93.588,241.447 93.84,239.74" id="Fill-89"></path>
                    <path d="M122.369,236.564 C122.402,234.634 122.337,232.702 122.269,230.773 C122.201,228.844 122.211,226.92 121.997,224.986 C121.741,222.675 121.857,220.324 121.764,217.992 C121.728,217.087 121.549,216.19 121.461,215.286 C121.384,214.495 121.278,213.698 121.301,212.907 C121.354,211.085 121.258,209.283 121.051,207.468 C120.892,206.068 120.51,204.674 120.723,203.236 C120.823,202.567 120.915,201.887 120.905,201.213 C120.866,198.487 121.077,195.751 120.621,193.039 C120.565,192.703 120.51,192.362 120.505,192.023 C120.472,190.038 120.462,188.053 120.428,186.068 C120.417,185.391 120.35,184.716 120.327,184.039 C120.301,183.246 120.406,182.43 120.257,181.662 C119.961,180.135 119.973,178.604 119.956,177.067 C119.942,175.93 119.931,174.791 119.873,173.655 C119.835,172.922 119.662,172.195 119.64,171.463 C119.6,170.1 119.569,168.733 119.64,167.374 C119.752,165.271 119.576,163.175 119.603,161.074 C119.64,158.236 119.512,155.398 119.963,152.572 C120.146,151.42 120.499,150.348 121.119,149.405 C121.805,148.361 122.445,147.317 123.023,146.2 C123.902,144.5 125.017,142.905 126.168,141.367 C127.059,140.178 127.834,138.95 128.526,137.636 C129.313,136.141 129.812,134.612 129.829,132.925 C129.838,131.962 129.803,130.995 129.88,130.037 C130.09,127.426 130.092,124.812 129.947,122.204 C129.795,119.478 129.695,116.761 129.993,114.038 C130.085,113.192 130.13,112.33 130.079,111.482 C130.007,110.298 129.858,109.116 129.679,107.943 C129.518,106.88 129.194,105.838 129.08,104.772 C128.839,102.511 128.688,100.241 128.501,97.975 C128.483,97.749 128.522,97.504 128.45,97.297 C128.339,96.981 128.18,96.673 127.988,96.399 C127.92,96.301 127.675,96.246 127.55,96.289 C127.425,96.331 127.263,96.523 127.267,96.644 C127.304,97.722 127.354,98.801 127.438,99.877 C127.6,101.956 128.243,104.016 127.672,106.124 C127.646,106.219 127.725,106.341 127.748,106.452 C128.094,108.119 128.266,109.801 128.241,111.506 C128.23,112.252 128.127,112.949 127.865,113.666 C127.597,114.397 127.404,115.228 127.468,115.991 C127.614,117.729 127.093,119.34 126.853,121.008 C125.483,120.748 124.813,120.304 124.409,119.38 C124.251,119.018 124.13,118.633 124.042,118.247 C123.614,116.365 123.359,114.458 123.286,112.527 C123.275,112.244 123.254,111.959 123.211,111.678 C123.167,111.393 122.816,111.115 122.605,111.223 C122.424,111.316 122.176,111.507 122.165,111.669 C122.119,112.345 122.064,113.041 122.172,113.703 C122.401,115.11 122.479,116.504 122.413,117.934 C122.279,120.842 122.973,123.462 125.48,125.297 C125.526,125.33 125.564,125.373 125.605,125.413 C126.805,126.574 127.267,127.931 126.756,129.575 C126.64,129.946 126.599,130.351 126.59,130.742 C126.575,131.375 126.408,131.955 126.229,132.562 C125.691,134.391 124.798,136.012 123.739,137.58 C123.249,138.304 122.718,138.959 122.012,139.437 C121.439,139.825 120.92,140.236 120.505,140.794 C120.343,141.011 120.092,141.193 119.718,141.034 C119.671,140.916 119.564,140.769 119.562,140.621 C119.538,139.142 119.551,137.663 119.511,136.185 C119.497,135.682 119.416,135.167 119.271,134.685 C118.972,133.693 118.827,132.691 118.852,131.656 C118.879,130.52 118.88,129.383 118.886,128.247 C118.888,127.675 118.868,127.112 118.553,126.596 C118.273,126.138 118.233,125.649 118.391,125.117 C118.466,124.864 118.384,124.563 118.367,124.284 C118.32,123.491 118.252,122.699 118.224,121.904 C118.181,120.652 118.363,119.354 118.09,118.157 C117.665,116.293 117.738,114.434 117.671,112.565 C117.647,111.886 117.548,111.209 117.475,110.532 C117.445,110.251 117.364,109.973 117.356,109.691 C117.321,108.512 117.3,107.331 117.283,106.151 C117.26,104.56 117.257,102.969 117.221,101.378 C117.205,100.639 117.176,99.895 117.076,99.164 C116.678,96.227 116.517,93.276 116.489,90.316 C116.472,88.607 116.456,86.898 116.427,85.189 C116.42,84.793 116.367,84.397 116.324,84.002 C116.119,82.084 115.721,80.162 115.751,78.248 C115.787,75.977 115.558,73.733 115.472,71.477 C115.383,69.146 115.229,66.818 115.047,64.493 C114.968,63.484 114.644,62.489 115.094,61.487 C115.154,61.351 115.092,61.148 115.055,60.983 C114.581,58.903 114.756,56.79 114.734,54.688 C114.729,54.176 114.823,53.633 114.686,53.158 C114.155,51.328 114.424,49.428 114.122,47.578 C113.939,46.462 113.83,45.316 113.851,44.187 C113.884,42.371 113.611,40.544 113.988,38.737 C114.011,38.628 114.039,38.491 113.995,38.403 C113.4,37.236 113.861,35.937 113.526,34.725 C113.384,34.211 113.564,33.61 113.582,33.048 C113.599,32.486 113.66,31.915 113.587,31.363 C113.431,30.174 113.315,28.995 113.472,27.794 C113.545,27.236 113.5,26.661 113.48,26.094 C113.429,24.674 113.336,23.254 113.308,21.833 C113.265,19.672 113.273,17.51 113.238,15.349 C113.236,15.25 113.227,15.151 113.223,15.052 C112.833,15.742 112.708,16.537 112.198,17.169 C111.788,17.681 111.467,18.28 111.189,18.865 C110.254,20.8 109.294,22.724 108.326,24.643 C108.328,24.831 108.334,25.017 108.335,25.205 C108.347,27.691 108.804,30.169 108.476,32.663 C108.44,32.938 108.524,33.227 108.541,33.51 C108.593,34.359 108.711,35.213 108.67,36.059 C108.604,37.416 108.412,38.767 108.311,40.124 C108.236,41.135 108.185,42.15 108.189,43.163 C108.193,44.071 108.281,44.978 108.343,45.885 C108.474,47.812 108.471,49.762 108.785,51.659 C109.169,53.976 109.132,56.308 109.34,58.629 C109.497,60.382 109.467,62.155 109.468,63.919 C109.468,65.726 109.636,67.53 109.505,69.342 C109.461,69.949 109.639,70.572 109.706,71.189 C109.731,71.413 109.754,71.641 109.737,71.864 C109.665,72.828 109.146,73.196 108.243,72.905 C107.982,72.821 107.74,72.658 107.507,72.503 C106.985,72.158 106.475,71.795 105.96,71.44 C104.443,70.395 103.415,69.023 103.057,67.182 C102.949,66.628 102.868,66.03 102.594,65.556 C102.002,64.53 101.8,63.44 101.759,62.289 C101.745,61.893 101.818,61.404 101.62,61.12 C100.931,60.132 101.119,59.04 101.124,57.978 C101.132,56.105 100.677,54.258 100.841,52.375 C100.865,52.098 100.887,51.675 100.412,51.496 C100.347,51.627 100.222,51.761 100.226,51.89 C100.29,53.701 99.971,55.494 100.111,57.319 C100.331,60.204 100.508,63.096 100.534,65.996 C100.545,67.173 100.74,68.402 101.128,69.51 C101.753,71.293 102.766,72.848 104.412,73.951 C105.25,74.513 105.958,75.29 106.655,76.035 C107.194,76.609 107.642,77.252 108.223,77.809 C108.864,78.425 109.36,79.235 109.764,80.038 C110.032,80.57 110.058,81.236 110.133,81.849 C110.194,82.348 110.151,82.858 110.184,83.362 C110.246,84.324 110.267,85.296 110.418,86.246 C110.625,87.542 110.297,88.837 110.484,90.122 C110.649,91.248 110.823,92.351 110.491,93.491 C110.374,93.894 110.57,94.383 110.594,94.834 C110.633,95.567 110.737,96.313 110.646,97.033 C110.573,97.61 110.536,98.145 110.675,98.713 C110.755,99.035 110.718,99.391 110.705,99.731 C110.652,101.086 110.638,102.446 110.517,103.796 C110.383,105.286 110.707,106.742 110.729,108.215 C110.799,112.763 110.763,117.315 110.913,121.86 C110.949,122.97 110.76,124.111 111.095,125.221 C111.206,125.589 111.136,126.013 111.137,126.412 C111.139,129.028 111.115,131.644 111.147,134.259 C111.167,135.905 111.24,137.551 111.341,139.194 C111.45,140.949 111.662,142.699 111.751,144.455 C111.846,146.323 111.875,148.195 111.885,150.066 C111.89,151.021 112.152,151.952 111.944,152.939 C111.734,153.939 111.841,153.961 110.58,154.277 C109.584,153.216 108.541,152.174 107.816,150.861 C107.6,150.468 107.274,150.136 106.998,149.777 C106.341,148.926 105.639,148.104 105.039,147.214 C104.536,146.467 104.136,145.648 103.718,144.847 C102.312,142.157 102.042,142.333 103.333,138.941 C103.659,138.084 103.876,137.233 103.807,136.287 C103.658,134.248 103.605,132.203 103.502,130.161 C103.491,129.941 103.442,129.704 103.338,129.515 C103.278,129.403 103.078,129.338 102.932,129.316 C102.856,129.305 102.699,129.422 102.683,129.502 C102.628,129.778 102.571,130.068 102.601,130.343 C102.794,132.106 102.507,133.862 102.543,135.623 C102.55,135.949 102.472,136.306 102.331,136.601 C102.156,136.967 101.86,137.254 101.341,137.077 C100.977,136.509 100.845,135.85 100.767,135.167 C100.696,134.55 100.576,133.939 100.486,133.323 C100.29,131.975 100.035,130.632 99.92,129.276 C99.686,126.505 99.534,123.726 99.329,120.952 C99.306,120.643 99.157,120.344 98.998,119.814 C98.777,120.212 98.614,120.385 98.588,120.577 C98.527,121.026 98.514,121.484 98.511,121.938 C98.498,124.207 98.623,126.475 98.554,128.745 C98.541,129.194 98.647,129.645 98.687,130.097 C98.757,130.89 98.878,131.684 98.873,132.478 C98.862,134.179 98.853,135.876 98.976,137.576 C99.037,138.424 99,139.252 99.296,140.093 C99.593,140.933 99.631,141.861 99.809,142.745 C100.022,143.804 100.222,144.869 100.838,145.796 C101.402,146.645 101.968,147.494 102.502,148.362 C103.364,149.764 104.162,151.207 105.065,152.583 C105.59,153.384 106.209,154.144 106.887,154.821 C108.103,156.037 109.131,157.361 109.824,158.945 C110.483,160.45 111.237,161.914 111.849,163.437 C112.203,164.32 112.519,165.275 112.568,166.212 C112.665,168.077 112.544,169.953 112.557,171.824 C112.564,172.731 112.711,173.637 112.724,174.545 C112.737,175.503 112.641,176.463 112.641,177.422 C112.64,179.178 112.705,180.935 112.685,182.69 C112.669,184.11 112.559,185.528 112.508,186.947 C112.456,188.423 112.538,189.914 112.356,191.373 C112.13,193.194 112.22,195.005 112.219,196.822 C112.218,197.902 112.172,198.986 112.242,200.062 C112.41,202.609 112.663,205.151 112.825,207.698 C112.9,208.887 113.003,210.109 112.814,211.271 C112.473,213.369 112.744,215.47 112.598,217.569 C112.449,219.704 112.779,221.873 112.917,224.026 C112.938,224.362 113.093,224.69 113.11,225.025 C113.16,226.045 113.191,227.066 113.19,228.087 C113.189,228.449 112.747,228.689 112.431,228.511 C112.09,228.318 111.746,228.097 111.474,227.82 C110.636,226.967 109.814,226.097 109.025,225.2 C108.731,224.866 108.517,224.453 108.317,224.051 C107.455,222.32 107.434,220.418 107.323,218.559 C107.164,215.892 107.082,213.229 106.413,210.616 C106.236,209.926 106.221,209.134 106.362,208.435 C106.608,207.221 106.379,206.103 106.031,204.896 C105.511,204.874 105.365,205.119 105.378,205.418 C105.405,206.04 105.539,206.661 105.533,207.281 C105.509,209.956 105.49,212.628 105.857,215.287 C105.888,215.508 105.93,215.765 105.851,215.957 C105.592,216.586 105.8,217.164 105.884,217.785 C105.977,218.465 106.274,219.207 105.819,219.973 C104.363,219.388 103.544,218.443 103.483,216.892 C103.46,216.325 103.383,215.756 103.286,215.196 C103.149,214.397 102.934,214.038 102.189,213.181 C101.831,213.507 101.686,213.901 101.774,214.378 C101.94,215.269 102.219,216.156 102.249,217.052 C102.304,218.66 102.886,220.036 103.795,221.308 C104.089,221.72 104.423,222.107 104.764,222.482 C105.541,223.334 106.12,224.283 106.407,225.416 C106.501,225.787 106.704,226.155 106.94,226.461 C107.191,226.785 107.368,227.101 107.457,227.509 C107.54,227.888 107.742,228.248 107.932,228.594 C108.882,230.319 110.2,231.713 111.777,232.879 C112.324,233.283 112.833,233.738 113.353,234.177 C113.724,234.49 113.89,234.896 113.87,235.384 C113.858,235.669 113.868,235.954 113.874,236.239 C113.947,239.455 113.75,242.676 114.009,245.89 C115.984,245.886 117.959,245.878 119.934,245.884 C121.015,245.884 122.099,245.898 123.182,245.908 C123.153,245.679 123.13,245.451 123.093,245.221 C122.643,242.354 122.319,239.478 122.369,236.564" id="Fill-90"></path>
                    <path d="M61.87,241.768 C61.789,240.464 61.627,239.161 61.622,237.857 C61.611,234.547 60.927,231.313 60.606,228.039 C60.484,226.797 60.407,225.55 60.31,224.305 C60.226,223.227 60.252,222.127 60.037,221.076 C59.635,219.111 59.712,217.127 59.603,215.15 C59.509,213.446 59.559,211.724 59.315,210.043 C59.16,208.968 59.074,207.903 59.009,206.827 C58.978,206.317 58.881,205.81 58.846,205.3 C58.775,204.28 58.711,203.26 58.67,202.238 C58.587,200.146 58.616,198.044 58.422,195.962 C58.243,194.041 57.775,192.145 58.172,190.201 C58.205,190.04 58.166,189.859 58.136,189.692 C57.882,188.272 58.302,186.998 58.953,185.763 C59.244,185.212 59.615,184.654 59.71,184.06 C59.899,182.882 60.513,181.949 61.148,181.005 C61.37,180.675 61.577,180.335 61.792,180.001 C62.867,178.33 64.016,176.701 64.997,174.977 C66.061,173.109 67.088,171.184 66.955,168.918 C66.872,167.499 66.895,166.047 66.576,164.678 C66.353,163.72 66.23,162.792 66.227,161.828 C66.223,160.124 66.233,158.421 66.219,156.717 C66.208,155.293 66.181,153.869 66.14,152.446 C66.132,152.154 65.996,151.843 65.668,151.828 C65.423,151.818 65.171,151.972 64.922,152.053 C64.958,153.335 64.881,154.54 65.053,155.708 C65.263,157.134 65.238,158.558 65.138,159.965 C64.972,162.294 64.851,164.619 65.029,166.945 C65.139,168.39 64.669,169.608 63.899,170.776 C63.219,171.807 62.363,172.727 61.902,173.899 C61.19,175.714 60.072,177.298 58.995,178.898 C58.538,179.577 58.042,180.251 57.414,180.913 C57.259,180.659 57.118,180.53 57.105,180.388 C56.993,179.2 56.943,178.005 56.799,176.82 C56.596,175.133 56.829,173.444 56.502,171.732 C56.155,169.91 56.305,167.991 56.255,166.114 C56.171,162.932 56.122,159.749 56.014,156.568 C55.976,155.437 55.962,154.299 55.594,153.192 C55.42,152.668 55.442,152.071 55.423,151.506 C55.405,150.945 55.489,150.38 55.454,149.821 C55.355,148.238 55.421,146.646 55.074,145.075 C54.942,144.477 55.038,143.829 55.029,143.203 C55.025,142.865 55.035,142.525 55.01,142.188 C54.88,140.373 54.705,138.56 54.618,136.743 C54.556,135.44 54.617,134.132 54.608,132.826 C54.605,132.435 54.6,132.043 54.586,131.651 C54.201,132.395 53.811,133.135 53.449,133.887 C53.43,133.939 53.399,133.985 53.378,134.036 C53.083,134.66 52.81,135.294 52.617,135.965 C52.544,136.228 52.368,136.491 52.193,136.696 C51.447,137.588 50.935,138.627 50.496,139.665 C50.085,140.642 49.607,141.589 49.122,142.532 C49.172,143.538 49.228,144.543 49.252,145.55 C49.287,147.03 49.249,148.513 49.288,149.994 C49.302,150.555 49.376,151.134 49.539,151.669 C49.827,152.611 49.893,153.562 49.881,154.534 C49.867,155.67 49.89,156.807 49.893,157.943 C49.906,161.528 50.372,165.077 50.751,168.632 C50.811,169.191 50.826,169.755 50.826,170.317 C50.827,170.686 50.395,170.952 50.095,170.763 C48.979,170.056 47.852,169.295 47.557,167.913 C47.285,166.642 47.205,165.329 47.039,164.035 C46.925,163.146 47.008,162.243 46.927,161.362 C46.753,159.448 45.955,157.63 45.997,155.666 C46.004,155.328 45.735,155.029 45.217,155.312 C45.197,155.661 45.123,156.058 45.159,156.444 C45.382,158.819 45.472,161.201 45.341,163.577 C45.224,165.715 45.634,167.727 46.352,169.71 C46.529,170.197 46.711,170.664 47.103,171.027 C47.651,171.534 48.13,172.094 48.355,172.829 C48.497,173.291 48.848,173.568 49.211,173.856 C50.274,174.7 50.574,176.048 51.3,177.118 C51.471,177.37 51.439,177.78 51.446,178.118 C51.454,178.515 51.403,178.913 51.377,179.31 C51.24,181.405 51.09,183.499 51.429,185.592 C51.675,187.107 51.75,188.63 51.658,190.168 C51.604,191.075 51.503,192.035 51.728,192.891 C52.254,194.894 52.067,196.95 52.366,198.964 C52.413,199.287 52.347,199.652 52.242,199.968 C51.852,201.146 52.04,202.33 52.147,203.515 C52.213,204.249 52.339,204.981 52.356,205.716 C52.382,206.788 52.695,207.85 52.473,208.929 C52.975,209.889 52.838,210.93 52.84,211.947 C52.843,213.884 52.801,215.819 53.259,217.726 C53.343,218.079 53.224,218.481 53.201,218.818 C51.745,219.302 50.893,218.515 50.231,217.557 C49.801,216.934 49.254,216.46 48.751,215.927 C48.401,215.557 48.033,215.204 47.702,214.818 C46.409,213.313 45.343,211.612 43.888,210.252 C43.168,209.579 42.81,208.761 42.717,207.854 C42.537,206.107 42.409,204.35 42.361,202.595 C42.293,200.095 42.367,197.598 41.967,195.107 C41.744,193.72 41.816,192.285 41.761,190.872 C41.699,189.281 41.657,187.688 41.58,186.098 C41.53,185.079 41.44,184.062 41.354,183.045 C41.278,182.143 41.19,181.241 41.092,180.34 C41.03,179.776 40.965,179.21 40.86,178.653 C40.338,175.886 40.913,173.085 40.592,170.312 C40.566,170.088 40.557,169.837 40.631,169.633 C41.275,167.866 40.947,166.024 40.944,164.235 C40.941,162.303 40.922,160.37 40.943,158.437 C40.565,159.195 40.331,160.025 39.981,160.798 C39.747,161.309 39.469,161.821 39.133,162.275 C38.606,162.977 38.329,163.781 37.875,164.512 C37.793,164.646 37.729,164.789 37.655,164.927 C37.537,165.195 37.407,165.459 37.295,165.73 C37.122,166.148 36.937,166.56 36.756,166.975 C36.6,167.369 36.439,167.76 36.252,168.139 C36.049,168.557 35.846,168.975 35.643,169.393 C35.547,169.59 35.454,169.788 35.356,169.984 C35.157,170.393 34.959,170.802 34.76,171.21 C34.219,172.322 33.62,173.404 33.122,174.53 C32.654,175.583 31.909,176.446 31.426,177.484 C31.016,178.333 30.504,179.137 30.066,179.985 C29.957,180.196 29.859,180.41 29.753,180.621 C29.758,180.714 29.761,180.806 29.766,180.898 C29.821,181.804 29.985,182.703 30.029,183.608 C30.182,186.789 30.304,189.972 30.439,193.154 C30.528,195.246 30.169,197.37 30.887,199.417 C31.062,202.31 31.256,205.202 31.407,208.096 C31.514,210.138 31.591,212.182 31.634,214.227 C31.707,217.635 31.749,221.045 31.781,224.454 C31.783,224.681 31.587,224.909 31.406,225.306 C29.917,223.928 28.414,222.824 27.178,221.327 C27.103,220.309 26.963,219.238 26.964,218.168 C26.966,217.111 27.174,216.054 27.173,214.997 C27.172,213.982 27.029,212.965 26.925,211.951 C26.902,211.735 26.792,211.522 26.694,211.321 C26.531,210.987 26.346,210.663 26.013,210.04 C25.959,210.594 25.92,210.803 25.922,211.012 C25.93,212.375 25.959,213.738 25.956,215.101 C25.955,215.693 25.776,216.204 25.048,216.427 C24.928,216.135 24.789,215.887 24.722,215.621 C24.32,214.021 23.927,212.419 23.553,210.812 C23.491,210.543 23.466,210.219 23.559,209.971 C23.715,209.559 23.607,209.205 23.516,208.819 C23.295,207.88 23.098,206.935 22.894,205.992 C22.812,205.609 22.816,205.165 22.305,205.069 C21.937,205 21.638,205.422 21.587,206.053 C21.578,206.166 21.55,206.281 21.564,206.392 C21.725,207.684 21.833,208.987 22.075,210.264 C22.307,211.488 22.682,212.683 22.712,213.945 C22.726,214.512 22.805,215.078 22.865,215.643 C22.968,216.605 22.951,217.603 23.215,218.519 C23.778,220.48 24.371,222.454 25.787,224.03 C25.977,224.24 26.2,224.45 26.304,224.703 C26.755,225.801 27.615,226.571 28.474,227.298 C29.624,228.271 30.215,229.66 31.228,230.723 C31.303,230.801 31.333,230.923 31.377,231.028 C31.985,232.448 32.421,233.958 32.5,235.464 C32.647,238.242 33.24,240.982 33.142,243.776 C33.117,244.484 33.158,245.19 33.2,245.896 C33.569,245.895 33.939,245.943 34.307,246.059 C34.614,246.162 34.848,246.074 35.126,246.03 C36.735,245.825 38.343,245.825 39.952,246.03 C40.376,246.381 40.873,245.855 41.298,246.147 C41.853,246.527 42.38,245.84 42.921,246.118 C43.374,246.352 43.842,246.337 44.325,246.323 C44.617,246.304 44.911,246.279 45.2,246.237 C45.052,245.152 44.955,244.062 44.961,242.957 C44.968,241.942 44.69,240.931 44.94,239.908 C44.99,239.704 44.88,239.464 44.856,239.239 C44.795,238.676 44.735,238.114 44.686,237.551 C44.627,236.871 44.58,236.191 44.526,235.511 C44.486,235.002 44.449,234.493 44.402,233.984 C44.313,233.026 44.252,232.064 44.116,231.113 C43.948,229.932 43.478,228.741 43.571,227.589 C43.684,226.192 43.402,224.873 43.306,223.52 C43.185,221.819 43.043,220.12 42.924,218.42 C42.876,217.739 42.836,217.056 42.845,216.374 C42.849,216.056 42.978,215.739 43.065,215.357 C44.04,215.664 44.578,216.355 45.085,217.003 C45.819,217.939 46.614,218.826 47.347,219.763 C48.809,221.634 50.418,223.392 51.83,225.309 C52.854,226.698 53.732,228.154 53.821,229.94 C53.96,232.721 54.098,235.503 54.198,238.285 C54.221,238.902 54.072,239.525 54.021,240.146 C53.906,241.549 53.707,242.926 54.061,244.359 C54.185,244.86 54.287,245.389 54.274,245.902 C54.56,245.9 54.846,245.9 55.132,245.899 C55.527,245.899 55.893,246.001 56.229,246.191 C56.507,246.337 56.785,246.337 57.048,246.206 C57.487,246.001 57.94,245.913 58.423,245.899 C59.65,245.863 60.877,245.875 62.104,245.891 C62.104,245.88 62.102,245.869 62.101,245.858 C62.067,244.494 61.955,243.131 61.87,241.768" id="Fill-91"></path>
                    <path d="M206.915,240.772 C206.842,239.926 206.842,239.067 206.902,238.219 C206.933,237.788 207.101,237.329 207.328,236.957 C207.771,236.232 208.241,235.507 208.804,234.875 C210.054,233.474 211.162,231.987 212.01,230.307 C212.136,230.058 212.347,229.851 212.525,229.63 C214.6,227.065 215.72,224.147 215.7,220.836 C215.68,218.621 215.54,216.408 215.73,214.192 C215.78,213.633 215.72,213.043 215.59,212.496 C215.19,210.814 215.36,209.098 215.37,207.416 C215.38,205.6 215.32,203.786 215.31,201.972 C215.31,201.519 215.26,201.063 215.18,200.617 C215.16,200.485 214.97,200.381 214.86,200.264 C214.31,200.56 214.45,201.071 214.44,201.496 C214.39,203.26 214.36,205.024 214.33,206.789 C214.3,208.54 213.694,210.261 214.05,212.035 C214.08,212.197 214.08,212.392 214.02,212.543 C213.658,213.469 213.824,214.455 213.67,215.403 C213.627,215.662 213.554,215.916 213.502,216.14 C212.82,216.267 212.351,216.092 212.1,215.575 C211.856,215.073 211.695,214.53 211.512,214 C211.171,213.014 211.191,211.99 211.202,210.966 C211.206,210.512 211.218,210.053 211.164,209.604 C211.11,209.162 210.583,208.868 210.12,208.964 C209.827,209.025 209.645,209.359 209.673,209.78 C209.68,209.893 209.652,210.02 209.694,210.119 C210.041,210.936 209.959,211.777 209.916,212.635 C209.872,213.529 209.97,214.43 209.983,215.327 C209.986,215.55 209.874,215.773 209.866,215.997 C209.859,216.215 209.867,216.459 209.955,216.651 C210.43,217.681 210.877,218.724 211.837,219.44 C212.482,219.92 212.913,220.574 213.076,221.168 C212.763,222.221 212.506,223.087 212.248,223.953 C212.183,224.169 212.175,224.435 212.04,224.593 C211.024,225.786 210.826,227.558 209.295,228.404 C208.99,228.574 208.902,229.098 208.632,229.379 C208.063,229.97 207.527,230.688 206.441,230.488 C206.034,229.2 205.921,227.912 205.898,226.605 C205.866,224.787 205.816,222.969 205.769,221.151 C205.734,219.85 205.796,218.535 205.626,217.251 C205.373,215.325 205.265,213.399 205.358,211.47 C205.445,209.659 205.54,207.861 205.484,206.041 C205.427,204.183 205.61,202.317 205.457,200.452 C205.425,200.06 205.505,199.658 205.529,199.261 C205.549,198.922 205.59,198.581 205.575,198.243 C205.476,195.976 205.372,193.714 205.414,191.437 C205.49,187.343 205.372,183.245 205.329,179.149 C205.325,178.809 205.265,178.47 205.248,178.13 C205.129,175.748 205.012,173.366 204.902,170.984 C204.894,170.816 204.959,170.645 204.96,170.476 C204.969,169.453 204.975,168.43 204.968,167.408 C204.965,167.068 204.873,166.724 204.9,166.389 C205.066,164.338 204.934,162.309 204.548,160.288 C204.357,159.286 204.158,158.273 204.117,157.258 C204.11,157.08 204.11,156.9 204.104,156.722 C204.05,156.63 204.009,156.53 203.953,156.439 C203.543,155.796 203.236,155.094 202.841,154.45 C202.608,154.041 202.374,153.617 202.227,153.178 C202.081,152.725 201.964,152.271 201.745,151.847 C200.545,149.478 199.376,147.08 198.206,144.696 C197.401,143.087 196.524,141.493 195.865,139.826 C195.207,138.129 194.388,136.55 193.482,134.985 C193.335,134.736 193.131,134.502 193.072,134.239 C192.751,132.718 191.844,131.461 191.127,130.144 C190.668,129.282 190.197,128.436 189.762,127.571 C189.04,126.299 188.279,125.043 188.014,123.565 C187.882,123.302 187.739,123.049 187.599,122.792 C187.287,122.538 186.801,122.579 186.607,122.969 C186.494,123.196 186.439,123.547 186.533,123.768 C186.994,124.861 187.481,125.945 188.018,127.002 C189.122,129.176 190.224,131.353 191.406,133.484 C191.945,134.456 192.299,135.419 192.221,136.538 C192.174,137.218 192.192,137.903 192.175,138.586 C192.125,140.578 192.342,142.559 192.418,144.543 C192.513,147.034 192.312,149.535 192.278,152.032 C192.245,154.414 191.981,156.786 192.151,159.18 C192.299,161.274 192.242,163.383 192.264,165.485 C192.274,166.39 192.252,167.295 192.249,168.201 C192.241,170.64 192.291,173.081 192.208,175.518 C192.16,176.945 192.408,178.338 192.45,179.749 C192.521,182.079 192.549,184.41 192.562,186.74 C192.567,187.65 192.502,188.56 192.437,189.468 C192.311,191.217 191.913,192.949 192.149,194.719 C192.178,194.939 192.14,195.175 192.092,195.395 C192.009,195.777 191.718,195.987 191.359,195.993 C191.096,195.998 190.763,195.929 190.577,195.764 C189.939,195.199 189.333,194.595 188.757,193.967 C188.535,193.724 188.423,193.379 188.266,193.078 C187.711,192.007 188.07,190.732 187.507,189.657 C187.443,189.535 187.531,189.326 187.566,189.161 C187.814,187.998 188.097,186.841 188.305,185.671 C188.444,184.893 188.431,184.107 187.827,183.324 C187.285,184.206 187.989,185.475 186.77,185.943 C186.217,185.498 186.256,184.852 186.215,184.244 C186.161,183.449 186.289,182.608 186.07,181.866 C185.725,180.699 185.633,179.53 185.607,178.339 C185.592,177.638 185.312,177.093 184.729,176.598 C184.694,178.172 184.656,179.634 184.633936,181.096 C184.631,181.259 184.734,181.421 184.762,181.588 C184.838,182.033 184.932,182.479 184.96,182.928 C185.012,183.778 185.021,184.63 185.051,185.481 C185.11,187.222 185.112,188.968 185.248,190.703 C185.394,192.559 185.554,194.438 186.736,196.016 C186.77,196.061 186.798,196.112 186.823,196.162 C187.672,197.846 188.76,199.353 190.05,200.732 C190.543,201.259 190.928,201.918 191.242,202.574 C191.632,203.388 191.902,204.261 192.213,205.112 C192.31,205.375 192.423,205.649 192.437,205.923 C192.495,207.06 192.597,208.202 192.537,209.335 C192.37,212.518 192.405,215.7 192.463,218.884 C192.485,220.135 192.501,221.386 192.521,222.637 C192.524,222.807 192.498,222.986 192.541,223.146 C192.899,224.469 192.775,225.839 192.871,227.18 C193.037,229.503 192.942,231.845 192.96,234.179 C192.984,237.136 193.004,240.093 193.041,243.05 C193.052,243.959 193.107,244.868 193.156,245.776 C193.158,245.818 193.148,245.857 193.148,245.899 L202.315,245.899 C204.033,245.907 205.751,245.907 207.469,245.907 C207.449,245.379 207.416,244.852 207.361,244.328 C207.235,243.14 207.019,241.961 206.915,240.772" id="Fill-92"></path>
                    <path d="M142.631,235.642 C142.638,234.678 142.549,233.711 142.468,232.748 C142.365,231.509 142.142,230.274 142.119,229.034 C142.05,225.352 142.327,221.66 141.74,217.995 C141.889,216.28 141.439,214.596 141.46,212.89 C141.487,210.783 141.336,208.688 141.189,206.589 C141.11,205.458 141.099,204.311 141.201,203.184 C141.308,201.992 141.45,200.82 141.252,199.621 C141.142,198.955 141.304,198.226 141.11,197.598 C140.847,196.749 140.812,195.904 140.903,195.068 C141.009,194.1 140.901,193.158 140.87,192.2 C140.777,189.303 140.805,186.403 140.763,183.504 C140.754,182.939 140.65,182.375 140.575,181.812 C140.522,181.419 140.37,181.025 140.387,180.637 C140.45,179.205 140.346,177.803 139.941,176.419 C139.8,175.934 139.726,175.399 139.761,174.897 C139.913,172.689 139.204,170.494 139.669,168.284 C139.341,166.996 139.525,165.683 139.482,164.381 C139.35,160.462 139.202,156.543 139.06,152.624 C139.045,152.225 139.044,151.826 139.015,151.429 C138.821,148.827 138.601,146.228 138.431,143.625 C138.35,142.383 138.25,141.124 138.364,139.892 C138.473,138.705 138.655,137.538 138.559,136.334 C138.428,134.692 138.454,133.037 138.291,131.399 C138.108,129.549 137.724,127.718 137.959,125.842 C138.001,125.512 137.953,125.154 137.87,124.828 C137.609,123.807 137.737,122.802 137.864,121.779 C137.968,120.938 138.072,120.056 137.926,119.236 C137.733,118.149 137.857,117.104 137.931,116.034 C138.009,114.908 138.03,113.8 137.731,112.657 C137.317,111.072 136.979,109.437 137.092,107.772 C137.286,104.918 136.948,102.089 136.608,99.273 C136.294,96.674 135.938,94.09 135.948,91.461 C135.954,90.041 136.294,88.8 137.134,87.654 C138.008,86.462 138.82,85.223 139.636,83.99 C139.981,83.469 140.333,82.937 140.567,82.363 C141.229,80.735 141.862,79.093 142.444,77.434 C142.648,76.855 142.781,76.207 142.756,75.598 C142.666,73.384 142.483,71.174 142.358,68.961 C142.286,67.666 142.259,66.369 142.21,65.073 C142.161,63.765 142.297,62.416 142.014,61.161 C141.6,59.327 141.562,57.5 141.558,55.652 C140.928,55.603 140.62,55.738 140.605,56.188 C140.578,56.981 140.519,57.801 140.678,58.567 C141.06,60.417 140.962,62.298 141.07,64.156 C141.198,66.357 140.961,68.58 140.861,70.792 C140.849,71.067 140.728,71.342 140.626,71.605 C140.492,71.952 140.064,71.992 139.787,71.731 C139.38,71.348 139.3,70.843 139.217,70.338 C138.961,68.773 138.722,67.205 138.455,65.641 C138.424,65.455 138.258,65.291 138.085,65 C137.834,65.334 137.503,65.59 137.543,65.753 C137.754,66.602 137.829,67.419 137.492,68.253 C137.439,68.383 137.506,68.598 137.583,68.737 C137.912,69.327 137.833,69.948 137.768,70.572 C137.669,71.517 137.895,72.371 138.433,73.16 C138.85,73.769 139.188,74.433 139.614,75.035 C139.907,75.449 139.982,75.883 139.852,76.328 C139.338,78.095 138.55,79.729 137.261,81.069 C136.795,81.554 136.273,82.021 135.291,82.119 C134.953,80.709 134.655,79.396 134.729,78.017 C134.768,77.278 134.806,76.534 134.768,75.797 C134.575,72.05 134.665,68.291 134.284,64.553 C134.181,63.538 134.232,62.497 133.712,61.558 C133.633,61.416 133.6,61.226 133.61,61.062 C133.692,59.686 133.332,58.362 133.172,57.013 C132.926,54.926 132.704,52.832 132.594,50.735 C132.421,47.446 132.449,44.148 132.276,40.858 C132.21,39.609 132.125,38.362 132.054,37.114 C131.984,35.874 131.908,34.635 131.86,33.394 C131.827,32.542 131.807,31.687 131.834,30.835 C131.935,27.65 131.532,24.46 131.889,21.28 C132.016,20.148 132.095,19.035 131.834,17.915 C131.784,17.699 131.807,17.46 131.822,17.233 C131.995,14.625 131.323,12.019 131.805,9.408 C131.829,9.28 131.827,9.145 131.814,9.009 C131.643,8.759 131.504,8.496 131.395,8.22 C130.887,8.177 130.93,9.047 130.299,8.784 C129.861,8.059 129.887,7.184 129.758,6.354 C129.64,5.591 129.6,4.815 129.547,4.042 C129.513,3.966 129.473,3.893 129.44,3.816 C129.294,3.465 129.133,3.1 128.87,2.837 C128.684,2.646 128.54,2.435 128.409,2.217 C128.315,2.55 128.277,2.891 128.338,3.26 C128.543,4.49 128.22,5.762 128.618,6.98 C128.431,8.899 128.529,10.827 128.426,12.749 C128.387,13.478 128.52,14.216 128.56,14.951 C128.581,15.348 128.629,15.757 128.565,16.144 C128.183,18.459 128.4,20.795 128.281,23.119 C128.264,23.457 128.304,23.798 128.319,24.138 C128.35,24.818 128.425,25.5 128.404,26.178 C128.365,27.428 128.283,28.678 128.182,29.924 C128.168,30.104 127.978,30.313 127.812,30.42 C127.724,30.476 127.464,30.388 127.367,30.285 C126.699,29.573 126.114,28.819 126.022,27.781 C125.989,27.403 125.81,27.037 125.69,26.668 C125.586,26.349 125.394,26.037 125.374,25.714 C125.26,23.903 124.919,22.109 124.998,20.283 C125.027,19.604 125.032,18.901 124.892,18.242 C124.537,16.566 124.381,14.884 124.37,13.172 C124.359,11.524 124.45,9.832 124.113,8.241 C123.658,6.093 123.843,3.937 123.605,1.797 C123.568,1.46 123.516,1.12 123.419,0.797 C123.355,0.585 123.212,0.371 122.828,0.593 C122.781,1.755 122.33,2.925 122.729,4.204 C122.977,4.996 123.073,5.905 122.958,6.722 C122.803,7.829 123.025,8.884 123.18,9.928 C123.435,11.634 123.451,13.309 123.206,15.007 C123.134,15.503 123.166,16.02 123.191,16.525 C123.247,17.66 123.34,18.792 123.392,19.927 C123.401,20.126 123.283,20.331 123.196,20.629 C122.484,20.396 122.003,20.115 121.848,19.41 C121.385,17.308 120.903,15.211 120.994,13.035 C121.001,12.866 121.024,12.681 120.969,12.529 C120.824,12.126 120.536,12.048 120.072,12.298 C120.032,13.084 119.929,13.925 119.962,14.762 C120.021,16.295 120.209,17.824 120.25,19.357 C120.276,20.38 120.569,21.223 121.272,21.975 C121.773,22.512 122.13,23.183 122.626,23.726 C123.235,24.393 123.481,25.097 123.431,26.023 C123.323,28.043 123.804,30.01 124.58,31.839 C125.571,34.178 126.965,36.324 128.305,38.483 C128.526,38.84 128.634,39.161 128.67,39.574 C128.859,41.723 128.987,43.876 129.213,46.026 C129.586,49.581 130.043,53.141 130.005,56.731 C130.003,56.902 130.011,57.073 130.026,57.243 C130.197,59.164 130.251,61.085 130.172,63.014 C130.145,63.677 130.409,64.347 130.431,65.018 C130.455,65.746 130.305,66.479 130.321,67.209 C130.334,67.771 130.537,68.327 130.568,68.89 C130.75,72.281 130.716,75.68 130.866,79.07 C130.971,81.452 130.896,83.844 131.289,86.216 C131.483,87.387 131.369,88.604 131.859,89.734 C131.942,89.926 131.863,90.183 131.876,90.409 C131.902,90.863 131.842,91.351 131.99,91.763 C132.548,93.32 132.278,94.927 132.283,96.5 C132.287,97.857 132.282,99.219 132.434,100.556 C132.659,102.543 132.729,104.517 132.637,106.514 C132.531,108.785 132.504,111.062 132.516,113.336 C132.526,115.097 132.659,116.856 132.717,118.617 C132.781,120.549 132.612,122.491 133.009,124.406 C133.054,124.626 133.048,124.861 133.038,125.087 C132.858,129.076 133.016,133.057 133.286,137.035 C133.394,138.623 133.525,140.209 133.593,141.798 C133.673,143.668 133.69,145.54 133.749,147.41 C133.758,147.69 133.864,147.965 133.895,148.245 C133.969,148.919 134.095,149.597 134.069,150.268 C134.036,151.114 133.818,151.953 133.775,152.799 C133.635,155.581 133.72,158.366 133.998,161.133 C134.157,162.714 134.356,164.28 134.309,165.877 C134.27,167.238 134.357,168.605 134.412,169.968 C134.461,171.155 134.53,172.343 134.614,173.529 C134.777,175.854 135.035,178.175 135.108,180.503 C135.197,183.334 135.033,186.167 135.449,188.992 C135.704,190.732 135.781,192.501 135.894,194.259 C135.945,195.052 136.031,195.886 135.853,196.643 C135.267,199.13 135.598,201.637 135.729,204.108 C135.889,207.112 136.016,210.115 136.048,213.122 C136.064,214.599 135.947,216.077 135.945,217.554 C135.944,218.519 136.1,219.486 136.085,220.45 C136.048,222.835 135.925,225.216 136.085,227.605 C136.244,229.983 136.272,232.37 136.372,234.753 C136.481,237.363 136.615,239.972 136.722,242.582 C136.762,243.547 136.753,244.515 136.771,245.481 C136.774,245.623 136.782,245.765 136.786,245.907 C138.749,245.914 140.712,245.913 142.676,245.913 C142.855,245.913 143.032,245.934 143.21,245.946 C143.195,244.662 143.19,243.375 143.046,242.105 C142.8,239.954 142.617,237.808 142.631,235.642" id="Fill-93"></path>
                    <path d="M228.73,241.207 C228.61,240.849 228.7,240.416 228.7,240.018 C228.7,239.563 228.78,239.099 228.72,238.656 C228.51,237.288 228.53,235.931 228.82,234.584 C228.99,233.78 228.67,232.998 228.75,232.224 C228.88,230.993 228.86,229.772 228.8,228.544 C228.73,227.298 228.61,226.048 228.65,224.804 C228.71,223.232 229,221.694 228.77,220.082 C228.56,218.523 228.69,216.914 228.31,215.355 C228.22,214.973 228.2,214.563 228.21,214.167 C228.23,212.63 228.3,211.095 228.31,209.558 C228.31,208.899 228.45,208.295 228.77,207.709 L220.95,192.239 C220.97,192.391 220.98,192.545 221.01,192.686 C221.18,193.422 221.13,194.119 221.07,194.867 C220.94,196.39 221.02,197.931 221.05,199.464 C221.07,200.143 221.22,200.819 221.23,201.497 C221.25,203.203 221.18,204.901 221.02,206.608 C220.84,208.585 220.96,210.588 220.93,212.579 C220.92,213.717 220.97,214.868 220.82,215.988 C220.6,217.518 220.58,219.046 220.54,220.58 C220.52,221.372 220.39,222.161 220.32,222.952 C220.29,223.232 220.3,223.515 220.29,223.796 C220.23,225.327 220.25,226.867 220.09,228.387 C219.95,229.705 219.95,230.991 220.17,232.294 C220.41,233.761 220.47,235.233 220.18,236.707 C220.11,237.037 220.08,237.39 220.12,237.723 C220.29,239.255 220.23,240.789 220.24,242.325 C220.25,243.625 220.47,244.923 220.53,246.224 C220.53,246.23 220.53,246.235 220.53,246.24 C220.7,246.216 220.86,246.156 221.03,246.074 C221.4,245.913 221.77,245.913 222.12,246.103 C222.67,246.381 223.21,246.352 223.78,246.132 C223.94,246.074 224.18,246.001 224.31,246.074 C225.07,246.454 225.77,246.293 226.5,245.986 C226.84,245.84 227.25,245.899 227.63,245.913 C228.07,245.924 228.55,245.878 228.98,245.952 C228.98,245.667 228.98,245.383 228.98,245.099 C228.97,243.798 229.17,242.49 228.73,241.207" id="Fill-94"></path>
                    <path d="M15.242,235.68 C15.193,234.946 15.387,234.177 15.242,233.472 C14.709,230.881 15.468,228.261 14.993,225.676 C14.924,225.295 15.047,224.884 15.036,224.488 C14.97,222.156 15.058,219.805 14.772,217.5 C14.514,215.421 14.346,213.341 14.214,211.257 C13.905,211.875 13.595,212.493 13.288,213.112 C13.281,213.709 13.195,214.237 12.703,214.765 C12.148,215.362 11.826,216.187 11.594,217.032 C11.252,218.276 10.711,219.456 9.904,220.565 C9.768,220.437 9.649,220.351 9.577,220.265 C9.54,220.354 9.494,220.435 9.46,220.525 C9.186,221.246 8.828,221.932 8.433,222.596 C8.448,222.719 8.452,222.843 8.471,222.965 C8.773,224.947 8.72,226.935 8.89,228.914 C8.968,229.817 8.895,230.732 8.909,231.641 C8.929,232.948 8.951,234.256 9.003,235.562 C9.028,236.183 9.183,236.802 9.175,237.42 C9.158,238.717 9.495,240.035 8.983,241.31 C8.944,241.408 8.961,241.539 8.983,241.649 C9.277,243.061 9.203,244.486 9.178,245.909 C10.68,245.911 12.182,245.909 13.686,245.913 C14.424,245.913 15.164,245.914 15.903,245.913 C15.902,245.449 15.902,244.985 15.875,244.524 C15.703,241.573 15.439,238.629 15.242,235.68" id="Fill-95"></path>
                    <path d="M247.1,245.635 C247.49,244.919 247.37,244.158 247.21,243.412 C246.93,243.164 246.58,242.959 246.39,242.652 C245.93,241.935 245.53,241.175 245.15,240.414 C244.74,239.579 244.33,238.74 243.91,237.902 C243.89,239.454 243.85,241.006 243.81,242.558 C243.78,243.692 243.72,244.827 243.64,245.959 C243.64,246.068 243.63,246.176 243.62,246.284 C244.49,246.29 245.36,246.302 246.23,246.293 C246.63,246.279 246.92,245.986 247.1,245.635" id="Fill-96"></path>
                    <path d="M5.803,239.882 C5.823,239.603 5.838,239.319 5.814,239.041 C5.552,236.105 5.283,233.17 5.008,230.235 C4.999,230.136 4.902,230.045 4.799,229.871 C4.736,229.879 4.654,229.877 4.576,229.877 C4.529,229.946 4.492,230.022 4.443,230.089 C4.253,230.358 4.059,230.616 3.881,230.881 C3.923,231.195 4.027,231.51 4.047,231.828 C4.072,232.215 4.113,232.662 3.954,232.988 C3.386,234.146 2.736,235.264 2.087,236.454 C1.8,236.299 1.663,236.079 1.581,235.834 C1.295,236.462 0.995,237.08 0.637,237.655 C0.652,237.851 0.681,238.047 0.678,238.243 C0.654,239.832 0.529,241.418 0.966,242.979 C1.041,243.247 1.002,243.545 1.029,243.828 C1.096,244.519 1.172,245.209 1.237,245.901 C2.916,245.901 4.596,245.905 6.274,245.906 C6.264,245.87 6.255,245.835 6.249,245.799 C5.92,243.841 5.654,241.877 5.803,239.882" id="Fill-97"></path>
                </g>
                <g id="Page-1" transform="translate(0.000000, 1.000000)">
                    <polygon id="Fill-1" fill="#191E1A" points="0 284 327 284 279.91392 202.004024 276.447178 204.015998 320.068516 279.976053 6.9314838 279.976053 50.5508213 204.011974 47.0860796 202"></polygon>
                    <polygon id="Fill-2" fill="#191E1A" points="163.5 0 82 141.995015 85.4541673 144 163.5 8.02394843 241.545833 144 245 141.995015"></polygon>
                    <polygon id="Fill-3" fill="#191E1A" points="129 118 129 111 130.378 111 130.378 116.807042 134 116.807042 134 118"></polygon>
                    <g id="Group-42" transform="translate(33.000000, 111.000000)">
                        <path d="M111.0684,6.1758 C111.3944,6.1758 111.6704,6.1098 111.8924,5.9758 C112.1144,5.8418 112.2944,5.6698 112.4324,5.4558 C112.5684,5.2418 112.6664,4.9978 112.7224,4.7198 C112.7784,4.4438 112.8064,4.1578 112.8064,3.8658 L112.8064,0.2458 L114.1784,0.2458 L114.1784,3.8658 C114.1784,4.3518 114.1184,4.8078 114.0024,5.2358 C113.8844,5.6618 113.7024,6.0358 113.4524,6.3558 C113.2024,6.6758 112.8804,6.9298 112.4884,7.1158 C112.0964,7.3018 111.6224,7.3958 111.0784,7.3958 C110.5104,7.3958 110.0284,7.2978 109.6324,7.1018 C109.2364,6.9038 108.9144,6.6438 108.6684,6.3198 C108.4204,5.9978 108.2444,5.6238 108.1324,5.1958 C108.0224,4.7698 107.9664,4.3258 107.9664,3.8658 L107.9664,0.2458 L109.3484,0.2458 L109.3484,3.8658 C109.3484,4.1658 109.3764,4.4558 109.4324,4.7298 C109.4904,5.0078 109.5864,5.2518 109.7224,5.4658 C109.8604,5.6798 110.0364,5.8518 110.2584,5.9798 C110.4784,6.1118 110.7484,6.1758 111.0684,6.1758" id="Fill-4" fill="#191E1A"></path>
                        <polygon id="Fill-6" fill="#191E1A" points="122.2792 0.246 124.0492 2.884 125.8092 0.246 127.2992 0.246 124.7672 3.846 127.2192 7.346 125.7292 7.346 124.0492 4.806 122.3572 7.346 120.8572 7.346 123.3092 3.846 120.7792 0.246"></polygon>
                        <path d="M136.9882,6.1758 C137.3142,6.1758 137.5902,6.1098 137.8122,5.9758 C138.0362,5.8418 138.2162,5.6698 138.3542,5.4558 C138.4902,5.2418 138.5862,4.9978 138.6422,4.7198 C138.6982,4.4438 138.7282,4.1578 138.7282,3.8658 L138.7282,0.2458 L140.0982,0.2458 L140.0982,3.8658 C140.0982,4.3518 140.0382,4.8078 139.9242,5.2358 C139.8062,5.6618 139.6222,6.0358 139.3722,6.3558 C139.1222,6.6758 138.8002,6.9298 138.4082,7.1158 C138.0142,7.3018 137.5442,7.3958 136.9982,7.3958 C136.4322,7.3958 135.9482,7.2978 135.5522,7.1018 C135.1562,6.9038 134.8342,6.6438 134.5882,6.3198 C134.3422,5.9978 134.1622,5.6238 134.0522,5.1958 C133.9442,4.7698 133.8882,4.3258 133.8882,3.8658 L133.8882,0.2458 L135.2682,0.2458 L135.2682,3.8658 C135.2682,4.1658 135.2942,4.4558 135.3542,4.7298 C135.4082,5.0078 135.5062,5.2518 135.6422,5.4658 C135.7802,5.6798 135.9582,5.8518 136.1782,5.9798 C136.3962,6.1118 136.6682,6.1758 136.9882,6.1758" id="Fill-8" fill="#191E1A"></path>
                        <path d="M148.8574,3.7558 L150.5874,3.7558 C150.7154,3.7558 150.8334,3.7258 150.9434,3.6658 C151.0534,3.6058 151.1494,3.5238 151.2294,3.4198 C151.3094,3.3178 151.3714,3.1958 151.4174,3.0558 C151.4654,2.9158 151.4874,2.7658 151.4874,2.6058 C151.4874,2.4398 151.4634,2.2858 151.4074,2.1458 C151.3534,2.0058 151.2834,1.8838 151.1934,1.7818 C151.1034,1.6778 150.9994,1.5978 150.8834,1.5418 C150.7674,1.4838 150.6494,1.4558 150.5294,1.4558 L148.8574,1.4558 L148.8574,3.7558 Z M147.4794,7.3458 L147.4794,0.2458 L150.6194,0.2458 C150.9454,0.2458 151.2454,0.3138 151.5234,0.4518 C151.7994,0.5878 152.0374,0.7678 152.2374,0.9898 C152.4394,1.2138 152.5954,1.4658 152.7094,1.7498 C152.8214,2.0338 152.8774,2.3178 152.8774,2.6058 C152.8774,3.0658 152.7634,3.4838 152.5334,3.8618 C152.3034,4.2378 151.9894,4.5098 151.5994,4.6758 L153.2674,7.3458 L151.7094,7.3458 L150.2194,4.9638 L148.8574,4.9638 L148.8574,7.3458 L147.4794,7.3458 Z" id="Fill-10" fill="#191E1A"></path>
                        <polygon id="Fill-12" fill="#191E1A" points="160.5878 0.246 162.3378 3.666 164.1198 0.246 165.6078 0.246 163.0298 4.866 163.0298 7.346 161.6578 7.346 161.6578 4.846 159.0878 0.246"></polygon>
                        <path d="M9.5878,62.9356 C11.5058,62.9356 12.9478,62.3756 13.8678,61.3356 C14.9858,60.1356 15.1878,58.4556 15.1878,57.2956 C15.1878,56.0936 14.9858,54.4136 13.8678,53.2136 C12.9478,52.1736 11.5058,51.6536 9.5878,51.6536 L5.4258,51.6536 L5.4258,62.9356 L9.5878,62.9356 Z M21.5478,77.1396 L16.3058,77.1396 L8.8258,67.0976 L5.4258,67.0976 L5.4258,77.1396 L0.7858,77.1396 L0.7858,47.4516 L4.7058,47.4516 L9.5878,47.4516 C13.5078,47.4516 15.7878,49.0536 16.9878,50.4136 C18.5478,52.1336 19.3878,54.5336 19.3878,57.2956 C19.3878,60.0156 18.5478,62.4156 16.9878,64.1356 C16.2678,64.9356 15.1458,65.8556 13.5478,66.4156 L21.5478,77.1396 Z" id="Fill-14" fill="#BCA070"></path>
                        <polygon id="Fill-16" fill="#BCA070" points="41.8262 59.5352 52.6682 59.5352 52.6682 63.7352 41.8262 63.7352 41.8262 72.9372 54.9902 72.9372 54.9902 77.1392 41.7862 77.1392 37.1862 77.1392 37.1862 47.4512 41.7862 47.4512 54.9902 47.4512 54.9902 51.6132 41.8262 51.6132"></polygon>
                        <path d="M89.709,62.2958 C89.709,59.2538 88.869,56.7338 87.307,55.0138 C85.547,53.0538 82.947,52.0938 79.505,52.0938 L77.105,52.0938 L77.105,72.4978 L79.505,72.4978 C82.947,72.4978 85.547,71.4978 87.307,69.5778 C88.869,67.8558 89.709,65.2958 89.709,62.2958 M94.349,62.2958 C94.349,66.4958 93.107,70.0978 90.749,72.6978 C89.467,74.1378 87.869,75.2578 85.987,75.9778 C84.067,76.7378 81.907,77.1378 79.505,77.1378 L74.025,77.1378 L72.465,77.1378 L72.465,47.4518 L77.105,47.4518 L79.505,47.4518 C81.907,47.4518 84.067,47.8118 85.987,48.6118 C87.869,49.3338 89.467,50.4538 90.749,51.8938 C93.107,54.4938 94.349,58.0938 94.349,62.2958" id="Fill-18" fill="#191E1A"></path>
                        <polygon id="Fill-20" fill="#191E1A" points="111.462 77.138 116.102 77.138 116.102 47.452 111.462 47.452"></polygon>
                        <path d="M143.0644,62.9356 C144.9864,62.9356 146.4264,62.3756 147.3464,61.3356 C148.4664,60.1356 148.6664,58.4556 148.6664,57.2956 C148.6664,56.0936 148.4664,54.4136 147.3464,53.2136 C146.4264,52.1736 144.9864,51.6536 143.0644,51.6536 L138.9044,51.6536 L138.9044,62.9356 L143.0644,62.9356 Z M155.0264,77.1396 L149.7864,77.1396 L142.3044,67.0976 L138.9044,67.0976 L138.9044,77.1396 L134.2644,77.1396 L134.2644,47.4516 L138.1844,47.4516 L143.0644,47.4516 C146.9864,47.4516 149.2684,49.0536 150.4664,50.4136 C152.0264,52.1336 152.8664,54.5336 152.8664,57.2956 C152.8664,60.0156 152.0264,62.4156 150.4664,64.1356 C149.7464,64.9356 148.6264,65.8556 147.0244,66.4156 L155.0264,77.1396 Z" id="Fill-22" fill="#191E1A"></path>
                        <polygon id="Fill-23" fill="#191E1A" points="175.3046 59.5352 186.1466 59.5352 186.1466 63.7352 175.3046 63.7352 175.3046 72.9372 188.4666 72.9372 188.4666 77.1392 175.2626 77.1392 170.6646 77.1392 170.6646 47.4512 175.2626 47.4512 188.4666 47.4512 188.4666 51.6132 175.3046 51.6132"></polygon>
                        <path d="M226.3496,74.6982 C225.5876,75.1782 224.7876,75.6182 223.9476,75.9782 C222.1076,76.7382 220.1456,77.1382 218.1456,77.1382 C216.1456,77.1382 214.1856,76.7382 212.3856,75.9782 C210.5836,75.2182 209.0256,74.1382 207.6636,72.7782 C206.3036,71.4162 205.2236,69.8582 204.4636,68.0562 C203.7036,66.2562 203.3036,64.2962 203.3036,62.2962 C203.3036,60.2942 203.7036,58.3342 204.4636,56.4942 C205.2236,54.7342 206.3036,53.1342 207.6636,51.7742 C209.0256,50.4122 210.5836,49.3322 212.3856,48.6122 C214.1856,47.8122 216.1456,47.4522 218.1456,47.4522 C220.1456,47.4522 222.1076,47.8122 223.9476,48.6122 C224.1456,48.6922 224.3896,48.8122 224.5876,48.8922 L224.5876,54.3742 C222.7876,52.8942 220.5476,52.0942 218.1456,52.0942 C215.4256,52.0942 212.8656,53.1342 210.9456,55.0942 C209.0256,57.0142 207.9436,59.5742 207.9436,62.2962 C207.9436,65.0162 209.0256,67.5762 210.9456,69.4962 C212.8656,71.4162 215.4256,72.4982 218.1456,72.4982 C220.8676,72.4982 223.4276,71.4162 225.3476,69.4962 C225.7096,69.1362 226.0296,68.7782 226.3496,68.3762 L226.3496,74.6982 Z" id="Fill-24" fill="#191E1A"></path>
                        <polygon id="Fill-25" fill="#191E1A" points="262.1074 51.6132 253.9454 51.6132 253.9454 77.1392 249.2634 77.1392 249.2634 51.6132 241.1034 51.6132 241.1034 47.4512 262.1074 47.4512"></polygon>
                        <path d="M28.334,127.1446 C28.334,126.7106 28.41,126.2826 28.564,125.8586 C28.716,125.4366 28.94,125.0586 29.228,124.7246 C29.518,124.3906 29.874,124.1206 30.294,123.9146 C30.712,123.7086 31.194,123.6046 31.732,123.6046 C32.368,123.6046 32.916,123.7486 33.378,124.0346 C33.842,124.3206 34.184,124.6946 34.404,125.1546 L33.344,125.8846 C33.264,125.6846 33.16,125.5166 33.034,125.3786 C32.908,125.2426 32.768,125.1346 32.62,125.0546 C32.468,124.9746 32.314,124.9166 32.154,124.8786 C31.994,124.8426 31.84,124.8246 31.694,124.8246 C31.368,124.8246 31.08,124.8946 30.834,125.0346 C30.588,125.1746 30.38,125.3546 30.218,125.5786 C30.056,125.8026 29.932,126.0566 29.85,126.3386 C29.766,126.6226 29.724,126.9046 29.724,127.1846 C29.724,127.4986 29.772,127.7986 29.87,128.0886 C29.964,128.3786 30.102,128.6346 30.28,128.8546 C30.456,129.0746 30.666,129.2506 30.914,129.3846 C31.16,129.5186 31.432,129.5846 31.724,129.5846 C31.876,129.5846 32.034,129.5646 32.194,129.5246 C32.354,129.4846 32.51,129.4206 32.658,129.3346 C32.808,129.2486 32.948,129.1366 33.072,128.9986 C33.202,128.8626 33.302,128.6966 33.384,128.5046 L34.514,129.1546 C34.408,129.4206 34.252,129.6566 34.048,129.8586 C33.846,130.0626 33.614,130.2346 33.354,130.3746 C33.094,130.5146 32.82,130.6206 32.534,130.6946 C32.248,130.7686 31.962,130.8046 31.684,130.8046 C31.19,130.8046 30.738,130.6966 30.33,130.4846 C29.92,130.2706 29.564,129.9926 29.268,129.6486 C28.97,129.3066 28.742,128.9166 28.58,128.4786 C28.416,128.0426 28.334,127.5986 28.334,127.1446" id="Fill-26" fill="#191E1A"></path>
                        <path d="M43.9942,125.1338 L42.9742,128.0038 L44.9822,128.0038 L43.9942,125.1338 Z M40.6322,130.7438 L43.4342,123.6438 L44.5522,123.6438 L47.3442,130.7438 L45.8822,130.7438 L45.2322,128.9738 L42.7442,128.9738 L42.0942,130.7438 L40.6322,130.7438 Z" id="Fill-27" fill="#191E1A"></path>
                        <polygon id="Fill-28" fill="#191E1A" points="59.8926 130.7442 59.8926 126.0442 58.0646 129.5442 57.3146 129.5442 55.4826 126.0442 55.4826 130.7442 54.1026 130.7442 54.1026 123.6442 55.5846 123.6442 57.6846 127.6842 59.8026 123.6442 61.2726 123.6442 61.2726 130.7442"></polygon>
                        <path d="M70.1348,127.1542 L71.7328,127.1542 C71.9868,127.1542 72.1968,127.0502 72.3688,126.8442 C72.5388,126.6382 72.6228,126.3582 72.6228,126.0042 C72.6228,125.8242 72.5948,125.6622 72.5448,125.5202 C72.4908,125.3762 72.4208,125.2542 72.3348,125.1542 C72.2488,125.0542 72.1468,124.9802 72.0288,124.9282 C71.9128,124.8782 71.7948,124.8542 71.6748,124.8542 L70.1348,124.8542 L70.1348,127.1542 Z M68.7548,130.7442 L68.7548,123.6442 L71.7628,123.6442 C72.0908,123.6442 72.3928,123.7122 72.6708,123.8502 C72.9448,123.9862 73.1828,124.1662 73.3848,124.3882 C73.5848,124.6122 73.7408,124.8662 73.8528,125.1502 C73.9668,125.4322 74.0228,125.7182 74.0228,126.0042 C74.0228,126.3042 73.9708,126.5962 73.8628,126.8782 C73.7568,127.1622 73.6068,127.4142 73.4148,127.6342 C73.2208,127.8542 72.9868,128.0302 72.7128,128.1642 C72.4388,128.2982 72.1408,128.3642 71.8148,128.3642 L70.1348,128.3642 L70.1348,130.7442 L68.7548,130.7442 Z" id="Fill-29" fill="#191E1A"></path>
                        <polygon id="Fill-30" fill="#191E1A" points="85.8926 129.5342 85.8926 130.7442 80.9626 130.7442 80.9626 123.6442 85.8026 123.6442 85.8026 124.8542 82.3446 124.8542 82.3446 126.5642 85.3346 126.5642 85.3346 127.6842 82.3446 127.6842 82.3446 129.5342"></polygon>
                        <path d="M94.3848,127.1542 L96.1128,127.1542 C96.2408,127.1542 96.3568,127.1242 96.4688,127.0642 C96.5808,127.0042 96.6748,126.9222 96.7548,126.8202 C96.8348,126.7162 96.8968,126.5942 96.9428,126.4542 C96.9908,126.3142 97.0128,126.1642 97.0128,126.0042 C97.0128,125.8382 96.9868,125.6842 96.9328,125.5442 C96.8808,125.4042 96.8088,125.2822 96.7188,125.1782 C96.6288,125.0762 96.5248,124.9962 96.4088,124.9402 C96.2908,124.8822 96.1748,124.8542 96.0528,124.8542 L94.3848,124.8542 L94.3848,127.1542 Z M93.0048,130.7442 L93.0048,123.6442 L96.1428,123.6442 C96.4708,123.6442 96.7708,123.7122 97.0488,123.8502 C97.3268,123.9862 97.5648,124.1662 97.7628,124.3882 C97.9628,124.6122 98.1188,124.8662 98.2328,125.1502 C98.3448,125.4322 98.4048,125.7182 98.4048,126.0042 C98.4048,126.4642 98.2888,126.8822 98.0588,127.2582 C97.8308,127.6362 97.5168,127.9062 97.1228,128.0742 L98.7948,130.7442 L97.2328,130.7442 L95.7448,128.3642 L94.3848,128.3642 L94.3848,130.7442 L93.0048,130.7442 Z" id="Fill-31" fill="#191E1A"></path>
                        <path d="M115.5136,127.1542 L117.2436,127.1542 C117.3696,127.1542 117.4876,127.1242 117.5996,127.0642 C117.7096,127.0042 117.8036,126.9222 117.8856,126.8202 C117.9636,126.7162 118.0256,126.5942 118.0716,126.4542 C118.1196,126.3142 118.1416,126.1642 118.1416,126.0042 C118.1416,125.8382 118.1176,125.6842 118.0636,125.5442 C118.0096,125.4042 117.9396,125.2822 117.8496,125.1782 C117.7596,125.0762 117.6536,124.9962 117.5376,124.9402 C117.4216,124.8822 117.3036,124.8542 117.1836,124.8542 L115.5136,124.8542 L115.5136,127.1542 Z M114.1356,130.7442 L114.1356,123.6442 L117.2736,123.6442 C117.5996,123.6442 117.8996,123.7122 118.1776,123.8502 C118.4556,123.9862 118.6936,124.1662 118.8916,124.3882 C119.0936,124.6122 119.2496,124.8662 119.3636,125.1502 C119.4756,125.4322 119.5336,125.7182 119.5336,126.0042 C119.5336,126.4642 119.4196,126.8822 119.1896,127.2582 C118.9596,127.6362 118.6456,127.9062 118.2536,128.0742 L119.9236,130.7442 L118.3636,130.7442 L116.8736,128.3642 L115.5136,128.3642 L115.5136,130.7442 L114.1356,130.7442 Z" id="Fill-32" fill="#191E1A"></path>
                        <polygon id="Fill-33" fill="#191E1A" points="131.8028 129.5342 131.8028 130.7442 126.8728 130.7442 126.8728 123.6442 131.7128 123.6442 131.7128 124.8542 128.2528 124.8542 128.2528 126.5642 131.2448 126.5642 131.2448 127.6842 128.2528 127.6842 128.2528 129.5342"></polygon>
                        <polygon id="Fill-34" fill="#191E1A" points="144.7032 130.7442 144.7032 126.0442 142.8732 129.5442 142.1232 129.5442 140.2932 126.0442 140.2932 130.7442 138.9112 130.7442 138.9112 123.6442 140.3932 123.6442 142.4952 127.6842 144.6132 123.6442 146.0832 123.6442 146.0832 130.7442"></polygon>
                        <path d="M154.543,127.1944 C154.543,127.5004 154.587,127.7984 154.677,128.0844 C154.767,128.3704 154.899,128.6244 155.069,128.8444 C155.239,129.0644 155.447,129.2404 155.693,129.3744 C155.939,129.5084 156.221,129.5744 156.533,129.5744 C156.853,129.5744 157.135,129.5064 157.377,129.3684 C157.621,129.2324 157.827,129.0504 157.995,128.8244 C158.161,128.5984 158.287,128.3424 158.373,128.0604 C158.459,127.7764 158.501,127.4864 158.501,127.1944 C158.501,126.8884 158.455,126.5904 158.363,126.3044 C158.269,126.0184 158.139,125.7644 157.967,125.5444 C157.799,125.3244 157.591,125.1504 157.349,125.0204 C157.103,124.8884 156.831,124.8244 156.523,124.8244 C156.203,124.8244 155.921,124.8924 155.677,125.0284 C155.435,125.1664 155.229,125.3464 155.059,125.5704 C154.889,125.7924 154.759,126.0464 154.673,126.3284 C154.587,126.6124 154.543,126.9004 154.543,127.1944 M156.513,130.7944 C156.013,130.7944 155.557,130.6924 155.143,130.4884 C154.729,130.2864 154.375,130.0164 154.079,129.6784 C153.781,129.3424 153.553,128.9584 153.393,128.5244 C153.233,128.0904 153.155,127.6484 153.155,127.1944 C153.155,126.7204 153.239,126.2684 153.409,125.8344 C153.579,125.4004 153.815,125.0184 154.119,124.6844 C154.421,124.3504 154.779,124.0864 155.193,123.8884 C155.607,123.6924 156.057,123.5944 156.543,123.5944 C157.043,123.5944 157.501,123.6984 157.913,123.9084 C158.327,124.1184 158.679,124.3944 158.975,124.7344 C159.267,125.0744 159.495,125.4604 159.655,125.8944 C159.815,126.3264 159.893,126.7684 159.893,127.2144 C159.893,127.6884 159.809,128.1384 159.639,128.5684 C159.467,128.9984 159.233,129.3784 158.933,129.7084 C158.633,130.0384 158.275,130.3024 157.863,130.4984 C157.451,130.6964 157.001,130.7944 156.513,130.7944" id="Fill-35" fill="#191E1A"></path>
                        <path d="M171.6524,127.1846 C171.6524,126.8446 171.6064,126.5306 171.5144,126.2446 C171.4204,125.9586 171.2824,125.7106 171.1044,125.5046 C170.9244,125.2986 170.7004,125.1386 170.4384,125.0246 C170.1744,124.9106 169.8764,124.8546 169.5424,124.8546 L168.3424,124.8546 L168.3424,129.5346 L169.5424,129.5346 C169.8824,129.5346 170.1864,129.4746 170.4464,129.3546 C170.7104,129.2346 170.9324,129.0686 171.1084,128.8586 C171.2824,128.6486 171.4204,128.4006 171.5144,128.1146 C171.6064,127.8266 171.6524,127.5186 171.6524,127.1846 L171.6524,127.1846 Z M166.9624,130.7446 L166.9624,123.6446 L169.5424,123.6446 C170.1224,123.6446 170.6304,123.7366 171.0684,123.9246 C171.5044,124.1106 171.8684,124.3646 172.1624,124.6846 C172.4544,125.0046 172.6764,125.3786 172.8224,125.8106 C172.9684,126.2386 173.0424,126.6966 173.0424,127.1846 C173.0424,127.7246 172.9604,128.2126 172.7984,128.6486 C172.6344,129.0866 172.4004,129.4586 172.0924,129.7686 C171.7864,130.0786 171.4184,130.3186 170.9864,130.4886 C170.5564,130.6586 170.0764,130.7446 169.5424,130.7446 L166.9624,130.7446 Z" id="Fill-36" fill="#191E1A"></path>
                        <polygon id="Fill-37" fill="#191E1A" points="185.0722 129.5342 185.0722 130.7442 180.1422 130.7442 180.1422 123.6442 184.9822 123.6442 184.9822 124.8542 181.5222 124.8542 181.5222 126.5642 184.5142 126.5642 184.5142 127.6842 181.5222 127.6842 181.5222 129.5342"></polygon>
                        <polygon id="Fill-38" fill="#191E1A" points="192.1816 130.7442 192.1816 123.6442 193.5616 123.6442 193.5616 129.5342 197.1816 129.5342 197.1816 130.7442"></polygon>
                        <polygon id="Fill-39" fill="#191E1A" points="204.072 130.744 205.45 130.744 205.45 123.654 204.072 123.654"></polygon>
                        <polygon id="Fill-40" fill="#191E1A" points="214.3126 126.1944 214.3126 130.7444 212.9326 130.7444 212.9326 123.6444 214.0026 123.6444 217.7006 128.3044 217.7006 123.6544 219.0826 123.6544 219.0826 130.7444 217.9626 130.7444"></polygon>
                        <path d="M231.3222,129.9444 C230.7762,130.5104 230.1462,130.7944 229.4322,130.7944 C228.9782,130.7944 228.5522,130.6944 228.1522,130.4944 C227.7522,130.2944 227.4042,130.0264 227.1082,129.6904 C226.8102,129.3524 226.5762,128.9644 226.4082,128.5244 C226.2362,128.0844 226.1522,127.6284 226.1522,127.1544 C226.1522,126.6684 226.2362,126.2084 226.4082,125.7784 C226.5762,125.3504 226.8142,124.9724 227.1162,124.6504 C227.4202,124.3264 227.7782,124.0684 228.1882,123.8784 C228.5982,123.6904 229.0402,123.5944 229.5222,123.5944 C230.1702,123.5944 230.7222,123.7344 231.1822,124.0144 C231.6422,124.2944 231.9902,124.6704 232.2222,125.1444 L231.1942,125.9044 C231.0182,125.5504 230.7802,125.2804 230.4782,125.0944 C230.1742,124.9064 229.8382,124.8144 229.4722,124.8144 C229.1782,124.8144 228.9142,124.8784 228.6782,125.0044 C228.4402,125.1304 228.2402,125.3044 228.0722,125.5244 C227.9042,125.7444 227.7762,125.9984 227.6822,126.2844 C227.5882,126.5704 227.5402,126.8744 227.5402,127.1944 C227.5402,127.5284 227.5922,127.8384 227.6942,128.1284 C227.7902,128.4184 227.9322,128.6704 228.1122,128.8844 C228.2902,129.0984 228.5042,129.2664 228.7482,129.3884 C228.9902,129.5124 229.2602,129.5744 229.5522,129.5744 C230.2042,129.5744 230.7942,129.2504 231.3222,128.6044 L231.3222,128.1044 L229.8922,128.1044 L229.8922,127.0944 L232.4622,127.0944 L232.4622,130.7444 L231.3222,130.7444 L231.3222,129.9444 Z" id="Fill-41" fill="#191E1A"></path>
                    </g>
                </g>
            </g>
        </g>
    </g>
</svg>